<?xml version="1.0" standalone="no"?>
<!DOCTYPE svg PUBLIC "-//W3C//DTD SVG 20010904//EN"
 "http://www.w3.org/TR/2001/REC-SVG-20010904/DTD/svg10.dtd">
<svg version="1.0" xmlns="http://www.w3.org/2000/svg"
 width="136.000000pt" height="136.000000pt" viewBox="0 0 136.000000 136.000000"
 preserveAspectRatio="xMidYMid meet">
<metadata>
Created by potrace 1.14, written by Peter Selinger 2001-2017
</metadata>
<g transform="translate(0.000000,136.000000) scale(0.100000,-0.100000)"
fill="#000000" stroke="none">
<path d="M545 1345 c-401 -88 -633 -484 -511 -870 113 -357 494 -554 851 -441
357 113 554 494 441 851 -27 84 -75 172 -127 234 -158 185 -424 277 -654 226z
m461 -302 c-3 -16 -10 -59 -16 -98 -20 -130 2 -115 -175 -115 -85 0 -155 -1
-155 -2 0 -2 -23 -129 -50 -283 -27 -154 -50 -283 -50 -287 0 -5 -54 -8 -120
-8 -120 0 -120 0 -115 23 7 32 135 777 135 788 0 5 115 9 276 9 l276 0 -6 -27z
m-46 -273 c0 -6 -7 -56 -17 -110 l-16 -100 -119 0 c-65 0 -118 3 -118 8 0 11
31 185 35 200 6 16 235 18 235 2z m-61 -387 c-10 -60 -18 -114 -19 -120 0 -10
-32 -13 -123 -13 l-124 0 21 120 20 120 121 0 121 0 -17 -107z"/>
</g>
</svg>
