<svg width="100" height="100" viewBox="0 0 100 100" fill="none" xmlns="http://www.w3.org/2000/svg">
<g clip-path="url(#clip0_46_556)">
<path d="M90.7643 60.6723C92.9041 57.3168 91.8936 54.0497 90.9494 52.2043C90.1213 53.5176 88.6619 54.393 86.9943 54.393C86.7393 54.393 86.4912 54.3668 86.2471 54.3278C85.9842 58.2473 83.6846 61.6321 80.4014 63.4215V66.8188C80.4014 67.9063 80.9721 68.9016 81.8861 69.4649C82.2525 69.6907 81.7877 69.4258 84.908 70.9778C85.3279 71.1848 85.8822 71.4039 86.3096 71.5379C86.3943 71.5645 86.4803 71.5875 86.5658 71.6118C88.2143 71.0086 89.6689 70.0504 90.6107 68.5586C92.3381 65.8235 91.3299 63.1735 90.6943 61.9875C90.4717 61.5708 90.5104 61.0711 90.7643 60.6723Z" fill="#FCE4BE"/>
<path d="M63.8997 54.3278C63.6559 54.3668 63.4075 54.393 63.1528 54.393C61.4856 54.393 60.0258 53.518 59.1977 52.2043C58.254 54.0497 57.2434 57.3168 59.3829 60.6723C59.6372 61.0711 59.6758 61.5707 59.4524 61.9872C58.8169 63.1735 57.8087 65.8235 59.536 68.5583C60.4782 70.05 61.9325 71.0079 63.5813 71.6114C63.6669 71.5872 63.7528 71.5641 63.8376 71.5375C64.2649 71.4036 64.8192 71.1844 65.2391 70.9774C68.5622 69.3247 67.9219 69.6731 68.261 69.4645C69.1751 68.9016 69.7458 67.9059 69.7458 66.8184V63.4211C66.4622 61.6321 64.1626 58.2473 63.8997 54.3278Z" fill="#FCE4BE"/>
<path d="M86.9949 45.0391C86.7504 45.0391 86.5105 45.0598 86.2762 45.0961V53.5766C86.2762 53.8293 86.2645 54.0793 86.248 54.3277C86.4918 54.3668 86.7402 54.393 86.9953 54.393C89.5785 54.393 91.6723 52.2992 91.6723 49.716C91.6719 47.1328 89.5777 45.0391 86.9949 45.0391Z" fill="#F9D0B4"/>
<path d="M63.8713 53.5765V46.9054C63.1021 46.6863 62.3123 46.4027 61.5021 46.0449C60.9799 45.814 60.3697 45.9202 59.9529 46.3109C59.0443 47.1628 58.4756 48.3718 58.4756 49.7159C58.4756 52.2988 60.5697 54.3929 63.1525 54.3929C63.4076 54.3929 63.6557 54.3671 63.8994 54.3277C63.883 54.0792 63.8713 53.8292 63.8713 53.5765Z" fill="#F9D0B4"/>
<path d="M75.0736 28.4414C66.6955 28.4414 59.8408 35.2965 59.8408 43.6742V46.427C59.8787 46.3887 59.9139 46.3477 59.9533 46.3105C60.3697 45.9199 60.9803 45.8137 61.5025 46.0445C62.3127 46.4023 63.1025 46.6859 63.8717 46.9051C72.676 49.4129 78.726 43.3715 80.4322 41.3801C80.7064 41.0598 81.1877 41.0367 81.4998 41.3199C83.0775 42.7535 84.4537 43.4098 85.5873 43.6727C85.9881 43.7656 86.2764 44.1145 86.2764 44.5258V45.0957C86.5107 45.0594 86.7506 45.0387 86.9951 45.0387C88.2893 45.0387 89.4604 45.5645 90.3068 46.4137V43.6742C90.3064 35.2965 83.4518 28.4414 75.0736 28.4414Z" fill="#FCE4BE"/>
<path d="M77.9562 77.1948L76.7613 76.0835C76.343 75.694 76.3191 75.039 76.7086 74.6206L81.6539 69.305C80.877 68.7245 80.4016 67.8101 80.4016 66.8187V63.4214C78.8145 64.2862 76.9988 64.7784 75.073 64.7784C73.1477 64.7784 71.3316 64.2862 69.7449 63.4214V66.8187C69.7449 67.8105 69.2691 68.7245 68.4922 69.305L73.4375 74.6206C73.827 75.039 73.8031 75.694 73.3848 76.0835L72.1898 77.1948C71.2523 78.0671 70.0449 78.3851 68.9066 78.2288L70.909 99.0233H79.2363L81.2387 78.2288C80.1016 78.3851 78.8941 78.0671 77.9562 77.1948Z" fill="#DAE6F1"/>
<path d="M68.074 69.5735C68.0513 69.5852 68.031 69.6004 68.0079 69.6118L65.2384 70.9774C64.6193 71.2825 63.9697 71.5215 63.3005 71.6899C63.2611 71.6997 57.5537 73.1407 57.5173 73.1497L55.2908 73.7118C53.3415 74.2024 51.9376 75.9036 51.8259 77.911L51.1247 97.1825C51.088 98.1879 51.8935 99.0235 52.8997 99.0235H70.9099L68.074 69.5735Z" fill="#3CAADC"/>
<path d="M98.3214 77.911C98.2097 75.9036 96.8058 74.2028 94.8565 73.7118L92.63 73.1497C92.5937 73.1407 86.8862 71.6997 86.8468 71.6899C86.1772 71.5215 85.528 71.2825 84.9089 70.9774L82.1394 69.6118C82.1163 69.6004 82.0964 69.5852 82.0737 69.5735L79.2378 99.0235H97.2479C98.2542 99.0235 99.0597 98.1883 99.0229 97.1825L98.3214 77.911Z" fill="#3CAADC"/>
<path d="M85.5867 43.673C84.4531 43.4105 83.077 42.7539 81.4992 41.3203C81.1871 41.0367 80.7059 41.0601 80.4316 41.3804C78.7254 43.3718 72.6758 49.4132 63.8711 46.9054V53.5765C63.8711 59.7379 68.9121 64.7785 75.0734 64.7785C81.2344 64.7785 86.2754 59.7375 86.2754 53.5765V44.5265C86.2754 44.1148 85.9875 43.766 85.5867 43.673Z" fill="#F9D0B4"/>
<path d="M68.0738 69.5735C68.0512 69.5852 68.0309 69.6004 68.0078 69.6118L65.2383 70.9774C64.6191 71.2825 63.9695 71.5215 63.3004 71.6899C63.2949 71.6915 63.1766 71.7211 62.9824 71.77L62.3906 82.6227C62.3629 83.1305 62.5336 83.629 62.8664 84.0129L65.4101 86.9481C66.0144 87.6454 66.0508 88.6696 65.4969 89.4079L64.2168 91.1145C63.8351 91.6235 63.7242 92.286 63.9191 92.8915L65.8937 99.0231H70.9098L68.0738 69.5735Z" fill="#70D6F9"/>
<path d="M87.2808 84.0132C87.6136 83.6288 87.7843 83.1304 87.7569 82.623L87.1647 71.7702C86.9706 71.721 86.8522 71.6913 86.8468 71.6901C86.1772 71.5218 85.528 71.2827 84.9089 70.9776L82.1394 69.612C82.1163 69.6007 82.0964 69.5854 82.0737 69.5737L79.2378 99.0237H84.2538L86.2284 92.8921C86.4233 92.2866 86.3124 91.6241 85.9308 91.1151L84.6507 89.4085C84.0972 88.6702 84.1331 87.646 84.7374 86.9487L87.2808 84.0132Z" fill="#70D6F9"/>
<path d="M73.4383 74.6208L68.493 69.3052C68.3609 69.404 68.223 69.4954 68.0742 69.5735L68.9078 78.229C70.0457 78.3853 71.2535 78.0673 72.191 77.195L73.3859 76.0833C73.8043 75.6942 73.8277 75.0392 73.4383 74.6208Z" fill="#EDF4FC"/>
<path d="M81.6547 69.3052L76.7094 74.6208C76.3199 75.0392 76.3437 75.6942 76.7621 76.0837L77.957 77.1954C78.8945 78.0677 80.102 78.3856 81.2402 78.2294L82.0738 69.5739C81.9246 69.4954 81.7867 69.404 81.6547 69.3052Z" fill="#EDF4FC"/>
<path d="M81.6545 69.305C80.8775 68.7245 80.4021 67.8101 80.4021 66.8187V63.4214C78.815 64.2862 76.9994 64.7788 75.0736 64.7788C73.1482 64.7788 71.3322 64.2866 69.7455 63.4214V66.8187C69.7455 67.8105 69.2697 68.7245 68.4932 69.305L73.4385 74.6206C73.6752 74.8749 73.7572 75.2167 73.6924 75.5331H76.4553C76.3908 75.2167 76.4725 74.8749 76.7092 74.6206L81.6545 69.305Z" fill="#F9D0B4"/>
<path d="M64.5703 13.2445H60.6191C60.4 12.5082 60.1082 11.8027 59.7484 11.1391L62.5414 8.34609C62.8785 8.00898 62.8785 7.4625 62.5414 7.125L59.2852 3.86875C58.948 3.53164 58.4012 3.53164 58.0641 3.86875L55.2711 6.66172C54.6074 6.30195 53.9023 6.01055 53.1656 5.79102V1.83984C53.1656 1.36289 52.7789 0.976562 52.3023 0.976562H47.6973C47.2203 0.976562 46.834 1.36328 46.834 1.83984V5.79102C46.0977 6.01016 45.3922 6.30195 44.7285 6.66172L41.9355 3.86875C41.5984 3.53164 41.0516 3.53164 40.7145 3.86875L37.4582 7.125C37.1211 7.46211 37.1211 8.00898 37.4582 8.34609L40.2512 11.1391C39.8914 11.8027 39.6 12.5078 39.3805 13.2445H35.4297C34.9527 13.2445 34.5664 13.6313 34.5664 14.1078V18.7129C34.5664 19.1898 34.9531 19.5762 35.4297 19.5762H39.3809C39.6 20.3129 39.8918 21.018 40.2516 21.6816L37.4586 24.4746C37.1215 24.8117 37.1215 25.3582 37.4586 25.6953L40.7148 28.9516C41.052 29.2887 41.5988 29.2887 41.9359 28.9516L44.7289 26.1586C45.3926 26.5184 46.0977 26.8098 46.8344 27.0293V30.9805C46.8344 31.4574 47.2211 31.8437 47.6977 31.8437H52.3027C52.7797 31.8437 53.166 31.457 53.166 30.9805V27.0293C53.9023 26.8102 54.6078 26.5184 55.2715 26.1586L58.0645 28.9516C58.4016 29.2887 58.948 29.2887 59.2855 28.9516L62.5418 25.6953C62.8789 25.3582 62.8789 24.8117 62.5418 24.4746L59.7488 21.6816C60.1086 21.018 60.4 20.3129 60.6195 19.5762H64.5703C65.0473 19.5762 65.4336 19.1895 65.4336 18.7129V14.1078C65.4336 13.6309 65.0473 13.2445 64.5703 13.2445ZM50 22.2473C46.7762 22.2473 44.1629 19.634 44.1629 16.4102C44.1629 13.1863 46.7762 10.573 50 10.573C53.2238 10.573 55.8371 13.1863 55.8371 16.4102C55.8371 19.634 53.2238 22.2473 50 22.2473Z" fill="#F5C84C"/>
<path d="M36.2961 40.1867C35.5094 39.3617 34.2301 39.2856 33.3332 39.9895C31.9152 41.1024 29.4617 42.4781 25.9961 42.4781C22.5223 42.4781 20.0559 41.0957 18.6316 39.9813C17.7355 39.2801 16.459 39.3586 15.6738 40.182L15.6699 40.1863C14.5664 41.3434 13.9512 42.8809 13.9512 44.4793V54.577C13.9512 61.1945 19.3656 66.609 25.9832 66.609C32.6008 66.609 38.0152 61.1945 38.0152 54.577V44.4793C38.0148 42.8813 37.3992 41.3438 36.2961 40.1867Z" fill="#F9D0B4"/>
<path d="M38.7866 45.4077C38.5237 45.4077 38.2663 45.43 38.0144 45.469V54.5776C38.0144 54.8491 38.0019 55.1175 37.9839 55.3847C38.2456 55.4269 38.5124 55.4546 38.7862 55.4546C41.5604 55.4546 43.8097 53.2054 43.8097 50.4312C43.8101 47.6569 41.5612 45.4077 38.7866 45.4077Z" fill="#F9D0B4"/>
<path d="M13.9505 54.5776V45.469C13.6985 45.43 13.4411 45.4077 13.1782 45.4077C10.404 45.4077 8.15479 47.6569 8.15479 50.4312C8.15479 53.2054 10.404 55.4546 13.1782 55.4546C13.4521 55.4546 13.7188 55.4269 13.9806 55.3847V55.3843C13.963 55.1171 13.9505 54.8487 13.9505 54.5776Z" fill="#F9D0B4"/>
<path d="M37.9698 35.1445C37.5667 35.1445 37.2175 34.8339 37.212 34.4308C37.1198 27.7261 29.4636 26.4667 21.839 27.7835C15.3745 28.8999 10.6499 34.5054 10.6499 41.0656V46.096C11.3933 45.6617 12.2554 45.4081 13.1784 45.4081C13.4413 45.4081 13.6987 45.4304 13.9507 45.4695V44.4804C13.9507 42.8816 14.5663 41.3445 15.6694 40.1874L15.6733 40.1832C16.4585 39.3597 17.7351 39.2812 18.6312 39.9824C20.055 41.0968 22.5218 42.4792 25.9956 42.4792C29.4612 42.4792 31.9147 41.1035 33.3327 39.9906C34.2296 39.2867 35.5089 39.3624 36.2956 40.1878C37.3991 41.3449 38.0144 42.8824 38.0144 44.4808V45.4699C38.2663 45.4308 38.5237 45.4085 38.7866 45.4085C39.721 45.4085 40.5925 45.6683 41.3417 46.1124V41.9824C41.3421 35.9781 39.1741 35.1445 37.9698 35.1445Z" fill="#5B5D60"/>
<path d="M31.9597 78.3188C31.6347 78.6907 31.0698 78.729 30.6979 78.404L28.0019 76.0493C27.63 75.7243 27.5917 75.1595 27.9167 74.7876L32.3612 69.6989C31.83 68.9919 31.5257 68.1212 31.5257 67.2028V65.2446C29.864 66.1146 27.9788 66.6099 25.9827 66.6099C23.9866 66.6099 22.1015 66.1146 20.4397 65.2446V67.2028C20.4397 68.1212 20.1354 68.9919 19.6042 69.6989L24.0487 74.7876C24.3737 75.1595 24.3354 75.7247 23.9636 76.0493L21.2675 78.404C20.8956 78.729 20.3304 78.6907 20.0058 78.3188L17.521 75.4739L21.2987 99.0235H30.6671L34.4448 75.4739L31.9597 78.3188Z" fill="#DAE6F1"/>
<path d="M16.8371 71.2128C16.7496 70.6683 16.195 70.332 15.6719 70.5066L7.80472 73.1293C5.1387 74.0179 3.23519 76.3785 2.93128 79.1722L0.987139 97.0554C0.873077 98.1062 1.69612 99.0238 2.75315 99.0238H21.2985L16.8371 71.2128Z" fill="#3A70BF"/>
<path d="M50.9779 97.0552L49.0338 79.172C48.7299 76.3782 46.8264 74.0177 44.1604 73.129L36.2932 70.5064C35.7701 70.3317 35.2154 70.6681 35.1279 71.2126L30.667 99.0235H49.2123C50.2689 99.0235 51.092 98.106 50.9779 97.0552Z" fill="#3A70BF"/>
<path d="M16.8375 71.2128C16.75 70.6683 16.1953 70.332 15.6723 70.5066L13.0352 71.3855V83.6328C13.0352 84.4648 13.5055 85.2257 14.2496 85.598L15.7102 86.3285C16.3129 86.6296 16.541 87.3742 16.2105 87.9617L14.4816 91.0351C14.1637 91.6 14.1117 92.2769 14.3395 92.8839L16.6418 99.0238H21.298L16.8375 71.2128Z" fill="#5290DB"/>
<path d="M36.2932 70.5066C35.7701 70.332 35.2154 70.6687 35.1279 71.2128L30.667 99.0234H35.3229L37.6252 92.8835C37.8529 92.2765 37.801 91.5999 37.483 91.0347L35.7541 87.9613C35.4236 87.3738 35.6518 86.6292 36.2545 86.3281L37.715 85.5976C38.4596 85.2253 38.9295 84.4648 38.9295 83.6323V71.3851L36.2932 70.5066Z" fill="#5290DB"/>
<path d="M32.361 69.6984C31.8298 68.9914 31.5255 68.1207 31.5255 67.2023V65.2441C29.8638 66.1141 27.9786 66.6094 25.9825 66.6094C23.9864 66.6094 22.1013 66.1141 20.4396 65.2441V67.2023C20.4396 68.1207 20.1353 68.9914 19.604 69.6984L24.0485 74.7871C24.2345 74.9996 24.2974 75.275 24.2513 75.5328H27.7134C27.6673 75.275 27.7306 74.9996 27.9161 74.7871L32.361 69.6984Z" fill="#F9D0B4"/>
<path d="M34.1928 68.961C33.8209 68.636 33.2557 68.6743 32.9311 69.0462L27.9166 74.7876C27.5916 75.1595 27.6299 75.7247 28.0018 76.0493L30.6978 78.404C31.0697 78.729 31.635 78.6907 31.9596 78.3188L34.4443 75.4739L35.1279 71.213C35.1943 70.7997 35.5303 70.5075 35.917 70.4665L34.1928 68.961Z" fill="#EDF4FC"/>
<path d="M24.0487 74.7876L19.0343 69.0462C18.7093 68.6743 18.1444 68.636 17.7726 68.961L16.0483 70.4669C16.4351 70.5079 16.771 70.7997 16.8374 71.2134L17.521 75.4743L20.0058 78.3192C20.3308 78.6911 20.8956 78.7294 21.2675 78.4044L23.9636 76.0497C24.3358 75.7243 24.3737 75.1595 24.0487 74.7876Z" fill="#EDF4FC"/>
<path d="M28.1891 80.5774H23.7758L21.9648 99.0235H30L28.1891 80.5774Z" fill="#FC657E"/>
<path d="M28.0016 76.0492C27.8422 75.9102 27.748 75.7262 27.7137 75.5332H24.2516C24.2172 75.7266 24.123 75.9102 23.9637 76.0492L22.3789 77.4336L23.7762 80.5773H28.1898L29.5871 77.4336L28.0016 76.0492Z" fill="#F98FA6"/>
<path d="M91.5882 61.1977C93.9866 57.436 92.8109 53.7661 91.8964 51.9129C91.6577 51.4297 91.0722 51.2305 90.5882 51.4696C90.1046 51.7083 89.9062 52.2938 90.1445 52.7774C91.0394 54.5907 91.7304 57.3411 89.9409 60.1477C89.4925 60.852 89.4511 61.7337 89.8347 62.4489C90.4312 63.5622 91.2187 65.7688 89.7863 68.0372C89.0652 69.1782 87.9101 70.0571 86.3527 70.6493C85.8488 70.8411 85.5956 71.4051 85.787 71.909C85.9355 72.2993 86.3062 72.5387 86.6999 72.5387C86.8156 72.5387 86.9327 72.518 87.0472 72.4747C89.0085 71.729 90.4863 70.5868 91.4374 69.0797C93.4726 65.8579 92.1984 62.7239 91.5566 61.5262C91.496 61.4145 91.5331 61.2833 91.5882 61.1977Z" fill="black"/>
<path d="M63.7871 70.6461C62.2332 70.0539 61.0808 69.1762 60.3613 68.0371C58.9289 65.7684 59.7164 63.5621 60.3133 62.4484C60.6961 61.7332 60.6551 60.852 60.2066 60.1473C58.4031 57.3188 59.1148 54.5488 60.0297 52.7235C60.2711 52.2414 60.0761 51.6543 59.5941 51.4129C59.1121 51.1715 58.5254 51.3664 58.2836 51.8484C57.3492 53.7129 56.1433 57.4067 58.5597 61.1973C58.6148 61.2832 58.6515 61.4145 58.5922 61.5258C57.9496 62.7238 56.6758 65.8578 58.7105 69.0797C59.6605 70.584 61.1343 71.725 63.0918 72.4711C63.2062 72.5149 63.3238 72.5356 63.4398 72.5356C63.8332 72.5356 64.2039 72.2961 64.3523 71.9067C64.5437 71.4024 64.291 70.8383 63.7871 70.6461Z" fill="black"/>
<path d="M86.9948 44.0625C86.8198 44.0625 86.6464 44.0711 86.4761 44.0871C85.939 44.1383 85.5452 44.6148 85.596 45.152C85.6476 45.6891 86.1253 46.0852 86.6608 46.0316C86.771 46.0211 86.8823 46.0156 86.9948 46.0156C89.0354 46.0156 90.6952 47.6758 90.6952 49.716C90.6952 51.7563 89.0354 53.4164 86.9948 53.4164C86.871 53.4164 86.7421 53.4082 86.6015 53.3918C86.071 53.3266 85.5804 53.7105 85.5167 54.2461C85.453 54.7816 85.8354 55.2676 86.3714 55.3312C86.589 55.357 86.7929 55.3699 86.9952 55.3699C90.1124 55.3699 92.6487 52.8336 92.6487 49.7164C92.6487 46.5992 90.1124 44.0625 86.9948 44.0625Z" fill="black"/>
<path d="M61.1077 46.9378C61.9347 47.3031 62.7749 47.6081 63.6046 47.8441C64.1249 47.9929 64.6636 47.691 64.8112 47.1722C64.9589 46.6535 64.6581 46.1132 64.1394 45.966C63.396 45.7542 62.6417 45.4804 61.8968 45.1515C61.0159 44.7624 59.9909 44.9378 59.2855 45.5988C58.1507 46.6632 57.4995 48.1636 57.4995 49.7163C57.4995 52.8335 60.0355 55.3699 63.153 55.3699C63.3105 55.3699 63.4663 55.3621 63.6202 55.3476C64.1569 55.2984 64.5526 54.823 64.503 54.2859C64.4538 53.7488 63.978 53.3527 63.4409 53.4031C63.3464 53.4117 63.2503 53.4167 63.153 53.4167C61.1124 53.4167 59.4526 51.7566 59.4526 49.7163C59.4526 48.6867 59.8679 47.7304 60.6214 47.0238C60.753 46.8992 60.9452 46.866 61.1077 46.9378Z" fill="black"/>
<path d="M75.0736 27.4653C66.1357 27.4653 58.8643 34.7368 58.8643 43.6747V46.3774C58.8643 46.9169 59.3014 47.354 59.8408 47.354C60.3803 47.354 60.8174 46.9169 60.8174 46.3774V43.6747C60.8174 35.8138 67.2127 29.4185 75.0736 29.4185C82.935 29.4185 89.3303 35.8138 89.3303 43.6747V46.3423C89.3303 46.8817 89.7674 47.3188 90.3068 47.3188C90.8463 47.3188 91.2834 46.8817 91.2834 46.3423V43.6747C91.2834 34.7368 84.0115 27.4653 75.0736 27.4653Z" fill="black"/>
<path d="M78.9533 56.8538C78.54 56.5073 77.9244 56.5612 77.5775 56.9745C77.0295 57.6284 76.0931 58.019 75.0736 58.019C74.0545 58.019 73.1181 57.6284 72.5701 56.9745C72.2224 56.5612 71.6076 56.5073 71.1943 56.8538C70.781 57.2003 70.7271 57.8163 71.0732 58.2296C71.9884 59.3206 73.4838 59.9722 75.0736 59.9722C76.6638 59.9722 78.1591 59.321 79.0744 58.2296C79.4205 57.8163 79.3666 57.2003 78.9533 56.8538Z" fill="black"/>
<path d="M79.9477 52.4622C80.7493 52.4622 81.3992 51.8123 81.3992 51.0106C81.3992 50.209 80.7493 49.5591 79.9477 49.5591C79.146 49.5591 78.4961 50.209 78.4961 51.0106C78.4961 51.8123 79.146 52.4622 79.9477 52.4622Z" fill="black"/>
<path d="M70.1996 49.5593C69.398 49.5593 68.748 50.2093 68.748 51.0109C68.748 51.8124 69.3977 52.4625 70.1996 52.4625C71.0016 52.4625 71.6512 51.8124 71.6512 51.0109C71.6512 50.2093 71.0012 49.5593 70.1996 49.5593Z" fill="black"/>
<path d="M69.7454 62.6223C69.206 62.6223 68.7688 63.0594 68.7688 63.5989V66.8188C68.7688 67.4833 68.4474 68.1204 67.9083 68.5227C67.4763 68.8458 67.3876 69.4575 67.7103 69.8899C67.902 70.1465 68.1958 70.2817 68.4935 70.2817C68.697 70.2817 68.9021 70.2184 69.0771 70.0875C70.1071 69.318 70.722 68.0958 70.722 66.8188V63.5989C70.722 63.0594 70.2849 62.6223 69.7454 62.6223Z" fill="black"/>
<path d="M82.239 68.5228C81.6999 68.12 81.3784 67.4829 81.3784 66.8188V63.5376C81.3784 62.9981 80.9413 62.561 80.4019 62.561C79.8624 62.561 79.4253 62.9981 79.4253 63.5376V66.8188C79.4253 68.0962 80.0401 69.3181 81.0702 70.0876C81.2456 70.2185 81.4507 70.2817 81.6538 70.2817C81.9515 70.2817 82.2452 70.1462 82.437 69.8899C82.7597 69.4575 82.6714 68.8458 82.239 68.5228Z" fill="black"/>
<path d="M79.2371 98.0469H70.9102C70.3707 98.0469 69.9336 98.484 69.9336 99.0234C69.9336 99.5629 70.3707 100 70.9102 100H79.2371C79.7766 100 80.2137 99.5629 80.2137 99.0234C80.2137 98.484 79.7766 98.0469 79.2371 98.0469Z" fill="black"/>
<path d="M91.3486 82.0327C90.8092 82.0327 90.3721 82.4698 90.3721 83.0093V98.4202C90.3721 98.9597 90.8092 99.3968 91.3486 99.3968C91.8881 99.3968 92.3252 98.9597 92.3252 98.4202V83.0093C92.3252 82.4702 91.8877 82.0327 91.3486 82.0327Z" fill="black"/>
<path d="M58.7988 82.0327C58.2594 82.0327 57.8223 82.4698 57.8223 83.0093V98.4202C57.8223 98.9597 58.2594 99.3968 58.7988 99.3968C59.3383 99.3968 59.7754 98.9597 59.7754 98.4202V83.0093C59.7754 82.4702 59.3383 82.0327 58.7988 82.0327Z" fill="black"/>
<path d="M69.0461 69.4796C69.0152 69.1569 68.8262 68.8706 68.5414 68.7155C68.2567 68.5605 67.9145 68.5566 67.6258 68.7054C67.6102 68.7136 67.5754 68.7335 67.5488 68.7491L64.8067 70.1011C64.2504 70.3753 63.6633 70.5909 63.0617 70.7425L63.036 70.7491C62.6215 70.8538 57.3113 72.1944 57.2785 72.2026L55.0528 72.7644C52.6762 73.3624 50.9875 75.4089 50.85 77.8749L50.1488 97.1464C50.1215 97.9003 50.3945 98.6144 50.9184 99.1573C51.4418 99.7003 52.1457 99.9991 52.8996 99.9991H70.9098C71.1852 99.9991 71.4477 99.8831 71.6328 99.6792C71.818 99.4753 71.9082 99.203 71.8821 98.9288L69.0461 69.4796ZM52.8996 98.0468C52.6805 98.0468 52.4762 97.9601 52.3238 97.8023C52.1715 97.6444 52.0922 97.437 52.1004 97.2179L52.8008 77.9651C52.8899 76.3757 53.986 75.0472 55.5297 74.6585L57.7578 74.0964C57.8254 74.0792 63.1012 72.7476 63.5137 72.6433C63.5137 72.6433 63.534 72.6382 63.5383 72.637C64.2735 72.4523 64.9906 72.1886 65.6699 71.8534L67.2379 71.0804L69.8348 98.0468H52.8996Z" fill="black"/>
<path d="M99.2964 77.8563C99.1597 75.4094 97.471 73.3633 95.0949 72.7649L92.8714 72.2035C92.8332 72.1938 87.123 70.7524 87.0851 70.743C86.4835 70.5914 85.8968 70.3758 85.3406 70.1016L82.6 68.75C82.5738 68.7344 82.5394 68.7149 82.5214 68.7055C82.2335 68.557 81.891 68.5606 81.6058 68.7156C81.321 68.8707 81.132 69.157 81.1011 69.4797L78.2652 98.9297C78.239 99.2039 78.3292 99.4762 78.5144 99.6801C78.6996 99.8836 78.9621 100 79.2375 100H97.2472C98.0019 100 98.7054 99.7008 99.2292 99.1578C99.7527 98.6148 100.026 97.9008 99.9984 97.1469L99.2964 77.8563ZM97.8234 97.8023C97.671 97.9602 97.4667 98.0469 97.2472 98.0469H80.3121L82.9085 71.0805L84.4765 71.8535C85.1558 72.1887 85.8726 72.4524 86.6089 72.6375C86.6773 72.6547 92.3191 74.0789 92.389 74.0965C92.3894 74.0965 92.3902 74.0969 92.391 74.0969L94.6175 74.659C96.1609 75.0477 97.2574 76.3762 97.3453 77.9465L98.0464 97.218C98.055 97.4371 97.9753 97.6445 97.8234 97.8023Z" fill="black"/>
<path d="M85.807 42.7216C84.6371 42.4505 83.4086 41.736 82.1555 40.5974C81.8102 40.2837 81.3469 40.1224 80.884 40.1497C80.4184 40.179 79.9941 40.39 79.6898 40.7446C79.6895 40.7446 79.6895 40.745 79.6895 40.745C78.1305 42.5649 72.4012 48.32 64.1383 45.9661C63.8449 45.8821 63.5273 45.9411 63.2828 46.1259C63.0383 46.3103 62.8945 46.5989 62.8945 46.9052V53.5767C62.8945 60.2919 68.3574 65.7556 75.073 65.7556C81.7887 65.7556 87.252 60.2923 87.252 53.5767V44.5267C87.252 43.661 86.6578 42.9189 85.807 42.7216ZM85.2988 53.5767C85.2988 59.2153 80.7117 63.8025 75.073 63.8025C69.4348 63.8025 64.8477 59.2153 64.8477 53.5767V48.1501C73.2965 49.8923 79.1496 44.311 81.0148 42.1974C82.4391 43.4544 83.8789 44.2649 85.2988 44.6083V53.5767Z" fill="black"/>
<path d="M75.0737 79.9155C74.5343 79.9155 74.0972 80.3526 74.0972 80.8921V95.0194C74.0972 95.5589 74.5343 95.996 75.0737 95.996C75.6132 95.996 76.0503 95.5589 76.0503 95.0194V80.8921C76.0503 80.353 75.6128 79.9155 75.0737 79.9155Z" fill="black"/>
<path d="M37.003 39.5129C35.869 38.3246 34.0327 38.1996 32.7304 39.2215C31.405 40.2621 29.1608 41.502 25.9964 41.502C22.8249 41.502 20.5683 40.2571 19.2339 39.2125C17.9323 38.1946 16.0983 38.3219 14.9628 39.5129C13.6804 40.8579 12.9741 42.6219 12.9741 44.4801V54.5778C12.9741 61.7508 18.8097 67.5864 25.9827 67.5864C33.1558 67.5864 38.9913 61.7508 38.9913 54.5778V44.4801C38.9909 42.6215 38.2851 40.8575 37.003 39.5129ZM37.0378 54.5778C37.0378 60.6735 32.0784 65.6332 25.9823 65.6332C19.8862 65.6332 14.9269 60.6739 14.9269 54.5778V44.4801C14.9269 43.1262 15.4413 41.8407 16.3804 40.8563C16.6167 40.6082 16.9347 40.4817 17.2569 40.4817C17.5265 40.4817 17.7991 40.5704 18.0296 40.7504C19.6062 41.984 22.2679 43.4547 25.996 43.4547C29.7187 43.4547 32.3683 41.9879 33.9362 40.7575C34.4425 40.3598 35.1538 40.4036 35.589 40.8606C36.5233 41.8403 37.0378 43.1258 37.0378 44.4797V54.5778Z" fill="black"/>
<path d="M42.998 82.325C42.4586 82.325 42.0215 82.7621 42.0215 83.3015V98.5359C42.0215 99.0753 42.4586 99.5125 42.998 99.5125C43.5375 99.5125 43.9746 99.0753 43.9746 98.5359V83.3015C43.9746 82.7621 43.5375 82.325 42.998 82.325Z" fill="black"/>
<path d="M8.9668 82.325C8.42734 82.325 7.99023 82.7621 7.99023 83.3015V98.5359C7.99023 99.0753 8.42734 99.5125 8.9668 99.5125C9.50625 99.5125 9.94336 99.0753 9.94336 98.5359V83.3015C9.94336 82.7621 9.50625 82.325 8.9668 82.325Z" fill="black"/>
<path d="M38.7867 44.4312C38.4863 44.4312 38.1762 44.4558 37.8652 44.5038C37.3891 44.5776 37.0383 44.9874 37.0383 45.469V54.5776C37.0383 54.7995 37.0297 55.0351 37.0105 55.319C36.9766 55.8226 37.3316 56.2687 37.8297 56.3487C38.1746 56.4042 38.4879 56.4312 38.7871 56.4312C42.0957 56.4312 44.7871 53.7394 44.7871 50.4312C44.7871 47.1229 42.0953 44.4312 38.7867 44.4312ZM38.991 54.4729V46.3897C41.1281 46.4964 42.8336 48.2686 42.8336 50.4315C42.8336 52.5944 41.1281 54.3659 38.991 54.4729Z" fill="black"/>
<path d="M14.9272 54.5776V45.469C14.9272 44.9878 14.5765 44.578 14.1007 44.5042C13.7897 44.4558 13.4792 44.4312 13.1788 44.4312C9.87061 44.4312 7.1792 47.1229 7.1792 50.4312C7.1792 53.7394 9.871 56.4312 13.1788 56.4312C13.4796 56.4312 13.7929 56.4042 14.137 56.3483C14.6347 56.2679 14.9897 55.8218 14.9558 55.319C14.9362 55.0312 14.9272 54.7956 14.9272 54.5776ZM12.9741 54.4729C10.8374 54.3663 9.13193 52.594 9.13193 50.4312C9.13193 48.2683 10.8374 46.4964 12.9741 46.3894V54.4729Z" fill="black"/>
<path d="M38.1819 34.1738C38.0948 31.9328 37.2366 30.1203 35.6276 28.7844C31.8343 25.6348 25.2565 26.2019 21.6726 26.8215C14.7198 28.0219 9.67334 34.0125 9.67334 41.0656V46.0957C9.67334 46.4457 9.86045 46.7687 10.164 46.9426C10.4675 47.1168 10.8409 47.1148 11.1433 46.9383C11.7632 46.5758 12.4671 46.384 13.1784 46.384C13.3784 46.384 13.5878 46.4008 13.8007 46.4336C14.0823 46.4773 14.369 46.3957 14.5862 46.2101C14.8026 46.0246 14.9272 45.7539 14.9272 45.4687V44.4797C14.9272 43.1258 15.4417 41.8402 16.3808 40.8558C16.8151 40.4 17.5245 40.3547 18.03 40.75C19.6065 41.9836 22.2683 43.4543 25.9964 43.4543C29.7187 43.4543 32.3687 41.9875 33.9366 40.757C34.4429 40.3594 35.1542 40.4035 35.5894 40.8598C36.5237 41.8394 37.0382 43.125 37.0382 44.4793V45.4683C37.0382 45.7535 37.1628 46.0242 37.3792 46.2097C37.5956 46.3949 37.8831 46.4765 38.1644 46.4332C38.3812 46.3996 38.5843 46.3832 38.787 46.3832C39.5065 46.3832 40.2179 46.5793 40.8444 46.9508C40.9983 47.0418 41.1702 47.0875 41.3425 47.0875C41.5093 47.0875 41.6761 47.0449 41.8257 46.9594C42.1304 46.7855 42.319 46.4617 42.319 46.1109V41.9808C42.3187 35.4711 39.8198 34.264 38.1819 34.1738ZM40.3655 44.6449C39.9179 44.5219 39.4565 44.4508 38.9909 44.4348C38.9796 42.593 38.2745 40.8465 37.0026 39.5125C35.8687 38.3242 34.0323 38.1992 32.73 39.2211C31.4046 40.2617 29.1604 41.5015 25.996 41.5015C22.8245 41.5015 20.5679 40.2566 19.2335 39.2121C17.9319 38.1941 16.0979 38.3215 14.9624 39.5125C13.6905 40.8465 12.9851 42.593 12.9737 44.4344C12.5179 44.45 12.0659 44.5183 11.6265 44.6371V41.0652C11.6265 34.9652 15.9913 29.784 22.005 28.7453C27.5382 27.7894 32.0491 28.3515 34.3796 30.2863C35.6038 31.3031 36.2108 32.6625 36.2351 34.4441C36.2483 35.3683 37.0261 36.1207 37.9694 36.1207C39.4917 36.1207 40.3651 38.257 40.3651 41.9812L40.3655 44.6449Z" fill="black"/>
<path d="M30.6671 98.0469H21.2983C20.7589 98.0469 20.3218 98.484 20.3218 99.0234C20.3218 99.5629 20.7589 100 21.2983 100H30.6667C31.2062 100 31.6433 99.5629 31.6433 99.0234C31.6433 98.484 31.2065 98.0469 30.6671 98.0469Z" fill="black"/>
<path d="M20.4393 64.4653C19.8998 64.4653 19.4627 64.9024 19.4627 65.4419V67.2024C19.4627 67.8298 19.278 68.4388 18.9287 68.963C18.6295 69.4114 18.751 70.0181 19.1995 70.3169C19.3662 70.4278 19.5541 70.481 19.7405 70.481C20.0561 70.481 20.3659 70.3282 20.5537 70.0458C21.1178 69.1993 21.4159 68.2161 21.4159 67.202V65.4415C21.4159 64.9024 20.9787 64.4653 20.4393 64.4653Z" fill="black"/>
<path d="M33.0672 69.009C32.6973 68.4739 32.502 67.8493 32.502 67.2028V65.4055C32.502 64.8661 32.0648 64.429 31.5254 64.429C30.9859 64.429 30.5488 64.8661 30.5488 65.4055V67.2028C30.5488 68.2481 30.8645 69.2567 31.4605 70.1196C31.65 70.3938 31.9551 70.5411 32.2648 70.5411C32.4562 70.5411 32.65 70.4848 32.8195 70.368C33.2629 70.0606 33.3738 69.4524 33.0672 69.009Z" fill="black"/>
<path d="M22.2627 98.8688L17.8017 71.0583C17.7142 70.5153 17.3947 70.0407 16.9248 69.7556C16.4541 69.4708 15.8861 69.4071 15.3635 69.5806C15.3635 69.5806 15.3635 69.5806 15.3631 69.5806L7.49627 72.2032C4.47713 73.2095 2.30447 75.9036 1.96072 79.0669L0.0161932 96.9501C-0.0685724 97.7263 0.182209 98.5044 0.703693 99.0856C1.22557 99.6665 1.97244 100 2.7533 100H21.2986C21.5846 100 21.8564 99.8747 22.0416 99.6571C22.2271 99.4392 22.3076 99.1513 22.2627 98.8688ZM2.7533 98.047C2.52283 98.047 2.31151 97.9524 2.15799 97.7813C2.00447 97.6103 1.93377 97.3899 1.95838 97.161L3.90252 79.2774C4.16424 76.8708 5.81697 74.8212 8.11385 74.0556L15.8885 71.4638L20.1529 98.047H2.7533Z" fill="black"/>
<path d="M51.9487 96.9497L50.0042 79.0665C49.6604 75.9032 47.4878 73.2091 44.469 72.2028L36.6018 69.5802C36.0796 69.406 35.5112 69.4704 35.0409 69.7552C34.5706 70.0403 34.2511 70.5153 34.1636 71.0583L29.7026 98.8689C29.6577 99.1513 29.7382 99.4392 29.9237 99.6571C30.1093 99.8751 30.3807 100 30.6667 100H49.212C49.9925 100 50.7393 99.6669 51.2608 99.086C51.7827 98.5048 52.0331 97.7263 51.9487 96.9497ZM49.8073 97.7814C49.6534 97.9524 49.4421 98.047 49.2124 98.047H31.8124L36.0764 71.4642L43.8511 74.0556C46.1479 74.8212 47.8007 76.8712 48.0624 79.2774L50.0069 97.1606C50.0319 97.3896 49.9608 97.6103 49.8073 97.7814Z" fill="black"/>
<path d="M30.045 57.007C29.6325 56.6609 29.0161 56.7144 28.6697 57.1281C28.12 57.7843 27.1806 58.1757 26.1579 58.1757C25.1353 58.1757 24.1962 57.7843 23.6462 57.1281C23.3005 56.7148 22.6841 56.6605 22.2708 57.007C21.8572 57.3534 21.8033 57.9695 22.1493 58.3827C23.0661 59.4761 24.5646 60.1288 26.1579 60.1288C27.7513 60.1288 29.2497 59.4761 30.1665 58.3827C30.5126 57.9695 30.4587 57.3534 30.045 57.007Z" fill="black"/>
<path d="M31.5861 49.3699C30.6932 49.3699 29.9697 50.0937 29.9697 50.9863C29.9697 51.8789 30.6936 52.6027 31.5861 52.6027C32.4791 52.6027 33.2025 51.8789 33.2025 50.9863C33.2025 50.0937 32.4791 49.3699 31.5861 49.3699Z" fill="black"/>
<path d="M20.7297 52.6032C21.6224 52.6032 22.3461 51.8795 22.3461 50.9868C22.3461 50.0941 21.6224 49.3704 20.7297 49.3704C19.837 49.3704 19.1133 50.0941 19.1133 50.9868C19.1133 51.8795 19.837 52.6032 20.7297 52.6032Z" fill="black"/>
<path d="M84.3384 15.2734H83.4009V14.375C83.4009 13.6719 82.854 13.125 82.1509 13.125C81.4868 13.125 80.9009 13.6719 80.9009 14.3359V15.2734H80.0025C79.2993 15.2734 78.7525 15.8203 78.7525 16.5234C78.7134 17.1875 79.2603 17.7734 80.0025 17.7734H80.9009V18.6719C80.9009 19.375 81.4478 19.9219 82.1509 19.9219C82.815 19.9219 83.4009 19.375 83.4009 18.7109V17.7734H84.2993C85.0025 17.7734 85.5493 17.2266 85.5493 16.5234C85.5493 15.8594 85.0025 15.2734 84.3384 15.2734Z" fill="#70D6F9"/>
<path d="M90.3149 22.0703C89.5813 22.0703 88.9868 22.6648 88.9868 23.3984C88.9868 24.132 89.5813 24.7266 90.3149 24.7266C91.0485 24.7266 91.6431 24.132 91.6431 23.3984C91.6431 22.6648 91.0481 22.0703 90.3149 22.0703Z" fill="#F5C84C"/>
<path d="M5.91797 30.5371C4.70703 30.3027 3.73047 29.3652 3.49609 28.1543C3.49609 28.1152 3.37891 28.1152 3.37891 28.1543C3.14453 29.3652 2.16797 30.3027 0.957031 30.5371C0.917969 30.5371 0.917969 30.6152 0.957031 30.6543C2.16797 30.8887 3.14453 31.8262 3.37891 33.0371C3.37891 33.0762 3.49609 33.0762 3.49609 33.0371C3.73047 31.8262 4.70703 30.8887 5.91797 30.6543C5.95703 30.6152 5.95703 30.5371 5.91797 30.5371Z" fill="#FC657E"/>
<path d="M31.0039 0C30.2703 0 29.6758 0.594531 29.6758 1.32812C29.6758 2.06172 30.2703 2.65625 31.0039 2.65625C31.7375 2.65625 32.332 2.06172 32.332 1.32812C32.332 0.594531 31.7371 0 31.0039 0Z" fill="#87D147"/>
<path d="M26.6211 9.0625C24.8633 8.75 23.4961 7.38281 23.1445 5.66406C23.1445 5.58594 22.9883 5.58594 22.9883 5.66406C22.6367 7.38281 21.2695 8.75 19.5117 9.0625C19.4336 9.0625 19.4336 9.17969 19.5117 9.21875C21.2695 9.53125 22.6367 10.8984 22.9883 12.6172C22.9883 12.6953 23.1445 12.6953 23.1445 12.6172C23.4961 10.8984 24.8633 9.53125 26.6211 9.21875C26.6992 9.17969 26.6992 9.0625 26.6211 9.0625Z" fill="#F5C84C"/>
<path d="M52.7745 14.7317C52.3929 14.3505 51.7749 14.3505 51.3937 14.7317L49.6948 16.4306L48.6788 15.4145C48.2972 15.0329 47.6792 15.0333 47.2979 15.4145C46.9163 15.7958 46.9163 16.4142 47.2979 16.7958L49.0042 18.5024C49.1874 18.6856 49.4354 18.7884 49.6948 18.7884C49.9542 18.7884 50.2022 18.6856 50.3854 18.5024L52.7745 16.113C53.1558 15.7313 53.1558 15.113 52.7745 14.7317Z" fill="black"/>
<path d="M50 9.59648C46.243 9.59648 43.1863 12.6531 43.1863 16.4102C43.1863 20.1672 46.243 23.2238 50 23.2238C53.757 23.2238 56.8137 20.1672 56.8137 16.4102C56.8137 12.6531 53.757 9.59648 50 9.59648ZM50 21.2707C47.3199 21.2707 45.1395 19.0902 45.1395 16.4102C45.1395 13.7301 47.3199 11.5496 50 11.5496C52.6801 11.5496 54.8605 13.7301 54.8605 16.4102C54.8605 19.0902 52.6801 21.2707 50 21.2707ZM64.5703 12.268H61.3238C61.2078 11.9496 61.0785 11.6367 60.9371 11.3313L63.2316 9.03672C63.5793 8.68945 63.7707 8.22734 63.7707 7.73555C63.7707 7.24375 63.5793 6.78203 63.2316 6.43437L59.9758 3.17852C59.6285 2.83047 59.1664 2.63906 58.6746 2.63906C58.1832 2.63906 57.7215 2.83047 57.3738 3.17773L55.0789 5.47266C54.7738 5.33125 54.4609 5.20195 54.1426 5.08594V1.83984C54.1426 0.825391 53.3172 0 52.3027 0H47.6977C46.6832 0 45.8578 0.825391 45.8578 1.83984V5.08633C45.5395 5.20234 45.2266 5.33164 44.9215 5.47305L42.6266 3.17852C42.2789 2.83086 41.8172 2.63945 41.3258 2.63945C40.834 2.63945 40.3719 2.83086 40.025 3.17852L36.7688 6.43477C36.4211 6.78242 36.2297 7.24414 36.2297 7.73594C36.2297 8.22773 36.4211 8.68945 36.7688 9.03672L39.0633 11.3316C38.9219 11.6371 38.7926 11.95 38.6766 12.2684H35.4297C34.4152 12.2684 33.5898 13.0938 33.5898 14.1082V18.7133C33.5898 19.7277 34.4152 20.5531 35.4297 20.5531H38.6762C38.7922 20.8715 38.9215 21.1844 39.0629 21.4898L36.7684 23.7844C36.0508 24.5016 36.0508 25.6691 36.7684 26.3863L40.0242 29.6422C40.3715 29.9902 40.8336 30.1816 41.3254 30.1816C41.8168 30.1816 42.2785 29.9902 42.6262 29.643L44.9211 27.348C45.2262 27.4895 45.5391 27.6187 45.8574 27.7348V30.9809C45.8574 31.9953 46.6828 32.8207 47.6973 32.8207H52.3023C53.3168 32.8207 54.1422 31.9953 54.1422 30.9809V27.7344C54.4605 27.6184 54.7734 27.4891 55.0785 27.3477L57.3734 29.6422C57.7211 29.9898 58.1828 30.1812 58.6742 30.1812C59.166 30.1812 59.6281 29.9898 59.975 29.6422L63.2312 26.3859C63.9488 25.6687 63.9488 24.5012 63.2312 23.784L60.9367 21.4895C61.0781 21.184 61.2074 20.8711 61.3234 20.5527H64.5699C65.5844 20.5527 66.4098 19.7273 66.4098 18.7129V14.1078C66.4102 13.0934 65.5844 12.268 64.5703 12.268ZM64.457 18.5996H60.6191C60.1875 18.5996 59.8066 18.8836 59.6832 19.2977C59.4836 19.9688 59.2168 20.6145 58.8902 21.2164C58.6844 21.5965 58.7527 22.0668 59.0586 22.3723L61.7711 25.0852L58.675 28.1812L55.9621 25.4687C55.6566 25.1629 55.1863 25.0945 54.8063 25.3008C54.2039 25.6273 53.5586 25.8945 52.8875 26.0941C52.4734 26.2172 52.1898 26.598 52.1898 27.0301V30.868H47.8113V27.0301C47.8113 26.598 47.5273 26.2172 47.1137 26.0941C46.4426 25.8945 45.7973 25.6277 45.1949 25.3008C44.8148 25.0949 44.3445 25.1629 44.0391 25.4687L41.3262 28.1812L38.2301 25.0852L40.9426 22.3723C41.248 22.0668 41.3168 21.5965 41.1109 21.2164C40.7844 20.6141 40.5172 19.9688 40.318 19.2977C40.1945 18.8836 39.8137 18.5996 39.382 18.5996H35.543V14.2211H39.3809C39.8125 14.2211 40.1934 13.9371 40.3168 13.523C40.5164 12.852 40.7832 12.2063 41.1098 11.6043C41.3156 11.2242 41.2473 10.7539 40.9414 10.4484L38.2289 7.73555L41.325 4.63945L44.0379 7.35195C44.3434 7.65781 44.8137 7.72617 45.1938 7.51992C45.7961 7.19336 46.4414 6.92617 47.1125 6.72656C47.5266 6.60352 47.8102 6.22266 47.8102 5.79063V1.95312H52.1887V5.79102C52.1887 6.22305 52.4727 6.60391 52.8863 6.72695C53.5574 6.92656 54.2027 7.19336 54.8051 7.52031C55.1852 7.72617 55.6555 7.6582 55.9609 7.35234L58.6738 4.63984L61.7699 7.73594L59.0574 10.4488C58.752 10.7543 58.6832 11.2246 58.8891 11.6047C59.2156 12.207 59.4828 12.8523 59.682 13.5234C59.8055 13.9375 60.1863 14.2215 60.618 14.2215H64.4559V18.5996H64.457Z" fill="black"/>
<path d="M17.4749 98.4622L15.2542 92.5407C15.1276 92.2028 15.1562 91.8286 15.3331 91.5141L17.062 88.4407C17.3499 87.9286 17.4163 87.3129 17.2444 86.7516C17.0722 86.1903 16.6718 85.7176 16.1468 85.4555L14.6862 84.725C14.2702 84.5168 14.0112 84.0985 14.0112 83.6333V71.6965C14.0112 71.1571 13.5741 70.72 13.0347 70.72C12.4952 70.72 12.0581 71.1571 12.0581 71.6965V83.6329C12.0581 84.8426 12.7304 85.9305 13.8124 86.4715L15.2733 87.202C15.3374 87.2344 15.3647 87.286 15.3769 87.3243C15.3882 87.3622 15.3948 87.4208 15.3597 87.4833L13.6308 90.5567C13.1702 91.375 13.0956 92.3485 13.4253 93.227L15.646 99.1481C15.7929 99.5399 16.1651 99.7821 16.5604 99.7821C16.6745 99.7821 16.7905 99.7622 16.9034 99.7196C17.4085 99.5297 17.6644 98.9668 17.4749 98.4622Z" fill="black"/>
<path d="M38.9299 70.7195C38.3905 70.7195 37.9533 71.1566 37.9533 71.696V83.6328C37.9533 84.098 37.6947 84.5164 37.2783 84.7246L35.8178 85.455C35.2928 85.7175 34.8928 86.1902 34.7205 86.7515C34.5487 87.3132 34.6147 87.9285 34.903 88.4406L36.6319 91.514C36.8088 91.8289 36.8373 92.2031 36.7108 92.541L34.5018 98.432C34.3127 98.9371 34.5682 99.4999 35.0733 99.6894C35.1862 99.7316 35.3022 99.7519 35.4162 99.7519C35.8115 99.7519 36.1838 99.5101 36.3307 99.1179L38.5397 93.2269C38.8694 92.348 38.7944 91.3749 38.3342 90.5566L36.6053 87.4832C36.5701 87.4207 36.5768 87.3621 36.5881 87.3242C36.5998 87.2863 36.6276 87.2343 36.6916 87.2019L38.1518 86.4718C39.2342 85.9308 39.9065 84.8433 39.9065 83.6332V71.6964C39.9065 71.1566 39.4694 70.7195 38.9299 70.7195Z" fill="black"/>
<path d="M36.4957 69.6757L34.8356 68.2257C34.459 67.8968 33.9778 67.7339 33.4782 67.7678C32.9797 67.8014 32.5243 68.0272 32.1953 68.4038L27.1809 74.1448C26.852 74.521 26.6895 75.003 26.7231 75.5018C26.7567 76.0003 26.9825 76.4561 27.359 76.7846L30.0547 79.1393C30.3989 79.4401 30.8305 79.6014 31.2832 79.6014C31.3258 79.6014 31.3692 79.6003 31.4121 79.5971C31.9106 79.5636 32.3661 79.3378 32.695 78.9612L35.1379 76.1639C35.4926 75.7577 35.4512 75.1409 35.045 74.7862C34.6391 74.4315 34.0219 74.4725 33.6672 74.8792L31.2786 77.6143L28.7063 75.3679L33.6125 69.7507L35.2114 71.1468C35.6168 71.5014 36.234 71.46 36.5891 71.0538C36.9434 70.6471 36.902 70.0303 36.4957 69.6757Z" fill="black"/>
<path d="M24.784 74.1452L19.7695 68.4038C19.4406 68.0272 18.9851 67.8014 18.4867 67.7678C17.9871 67.7339 17.5058 67.8968 17.1297 68.2253L15.4781 69.6675C15.0719 70.0221 15.0304 70.6389 15.3851 71.0452C15.7398 71.4514 16.357 71.4932 16.7629 71.1382L18.3523 69.7499L23.2586 75.3671L20.6863 77.6136L18.3074 74.8901C17.9527 74.4835 17.3351 74.4425 16.9297 74.7971C16.5234 75.1518 16.482 75.7686 16.8367 76.1749L19.2699 78.9604C19.5988 79.337 20.0543 79.5628 20.5527 79.5964C20.5957 79.5995 20.639 79.6007 20.6816 79.6007C21.134 79.6007 21.566 79.4389 21.9097 79.1386L24.6058 76.7839C24.9824 76.4554 25.2082 75.9995 25.2418 75.5011C25.2754 75.003 25.1129 74.521 24.784 74.1452Z" fill="black"/>
<path d="M29.1609 80.4817C29.1082 79.9446 28.6281 79.5552 28.0937 79.6052C27.557 79.6579 27.1644 80.1356 27.2172 80.6723L29.0035 98.8723C29.0531 99.3766 29.4781 99.7536 29.9742 99.7536C30.0062 99.7536 30.0382 99.752 30.0707 99.7489C30.6074 99.6962 31 99.2184 30.9472 98.6817L29.1609 80.4817Z" fill="black"/>
<path d="M23.871 79.6051C23.3354 79.5555 22.8561 79.9449 22.8038 80.4817L21.0174 98.6817C20.9647 99.2184 21.3573 99.6961 21.894 99.7488C21.9264 99.752 21.9585 99.7535 21.9905 99.7535C22.487 99.7535 22.9116 99.3766 22.9612 98.8723L24.7475 80.6723C24.8003 80.1356 24.4077 79.6578 23.871 79.6051Z" fill="black"/>
<path d="M29.9102 76.7058C29.4176 76.4874 28.8406 76.7081 28.6211 77.2015L27.5547 79.6007H24.4106L23.3805 77.2835C23.1609 76.7902 22.5836 76.5691 22.0914 76.7874C21.5984 77.0066 21.3766 77.5835 21.5957 78.0765L22.8832 80.9738C23.0395 81.3265 23.3895 81.5538 23.7754 81.5538H28.1891C28.575 81.5538 28.9246 81.3265 29.0813 80.9741L30.4055 77.9952C30.625 77.5023 30.4031 76.9249 29.9102 76.7058Z" fill="black"/>
<path d="M27.4299 74.5566H24.5732C24.0338 74.5566 23.5967 74.9937 23.5967 75.5332C23.5967 76.0727 24.0338 76.5098 24.5732 76.5098H27.4299C27.9693 76.5098 28.4064 76.0727 28.4064 75.5332C28.4064 74.9937 27.9693 74.5566 27.4299 74.5566Z" fill="black"/>
<path d="M64.8492 92.5918C64.7516 92.2891 64.8078 91.9558 64.9988 91.7008L66.2789 89.9941C67.1023 88.8961 67.0476 87.3461 66.1488 86.309L63.6047 83.3738C63.4367 83.1801 63.3523 82.9324 63.366 82.6766L63.9488 71.9883C63.9781 71.4496 63.5656 70.9894 63.0269 70.9601C62.4926 70.9266 62.0281 71.3434 61.9988 71.882L61.416 82.5707C61.3746 83.3355 61.6277 84.0754 62.1289 84.6535L64.6726 87.5887C64.9738 87.9363 64.9922 88.4551 64.7164 88.823L63.4363 90.5301C62.8652 91.2918 62.6984 92.2871 62.9902 93.1918L64.8937 99.1027C65.0273 99.5168 65.4105 99.7801 65.823 99.7801C65.9223 99.7801 66.0234 99.7648 66.123 99.7328C66.6363 99.5676 66.9183 99.0172 66.7531 98.5039L64.8492 92.5918Z" fill="black"/>
<path d="M88.0179 84.6532C88.5195 84.0751 88.773 83.3352 88.7312 82.57L88.1488 71.8965C88.1199 71.3583 87.6625 70.9423 87.1203 70.9747C86.582 71.004 86.1691 71.4641 86.1988 72.0028L86.7812 82.6758C86.7949 82.9321 86.7101 83.1801 86.5421 83.3739L83.9984 86.309C83.0996 87.3462 83.0449 88.8962 83.8683 89.9942L85.1484 91.7008C85.3394 91.9559 85.3953 92.2891 85.2976 92.5926L83.3812 98.5442C83.216 99.0575 83.4984 99.6079 84.0113 99.7731C84.1109 99.8051 84.2121 99.8204 84.3113 99.8204C84.7238 99.8204 85.107 99.5567 85.2406 99.143L87.157 93.1915C87.4484 92.286 87.2816 91.2907 86.7109 90.5294L85.4308 88.8227C85.155 88.4551 85.1734 87.936 85.4746 87.5883L88.0179 84.6532Z" fill="black"/>
<path d="M74.1529 73.9554L69.2076 68.6398C68.8685 68.2746 68.3072 68.2242 67.9084 68.5226C67.8025 68.6019 67.7084 68.6625 67.6209 68.7085C67.1431 68.9589 66.9591 69.5492 67.2095 70.0269C67.4201 70.4289 67.872 70.6234 68.2939 70.525L72.7232 75.2859C72.742 75.3062 72.7404 75.3496 72.7201 75.3683L71.5252 76.4796C70.8912 77.0695 70.0634 77.3519 69.1998 77.2789C68.6603 77.232 68.1892 77.6308 68.1431 78.1683C68.097 78.7054 68.4951 79.1785 69.0326 79.225C69.181 79.2378 69.3291 79.2441 69.4759 79.2441C70.7353 79.2441 71.9216 78.7789 72.8556 77.9097L74.0506 76.7984C74.4439 76.4324 74.6713 75.9351 74.6908 75.398C74.7099 74.8613 74.5193 74.3488 74.1529 73.9554Z" fill="black"/>
<path d="M82.526 68.7083C82.4381 68.6626 82.3471 68.6036 82.2393 68.5228C81.8397 68.2239 81.2791 68.2747 80.9401 68.64L75.9948 73.9552C75.6284 74.3486 75.4377 74.8611 75.4569 75.3978C75.4764 75.9349 75.7038 76.4321 76.0971 76.7978L77.292 77.9095C78.226 78.7786 79.4123 79.2443 80.6717 79.2439C80.8186 79.2439 80.9666 79.2376 81.1151 79.2247C81.6526 79.1786 82.051 78.7056 82.0045 78.1681C81.958 77.6306 81.4842 77.2302 80.9479 77.2786C80.083 77.3532 79.2561 77.0693 78.6225 76.4794L77.4276 75.3677C77.4073 75.3489 77.4057 75.3056 77.4245 75.2853L81.8538 70.5243C82.276 70.622 82.728 70.4275 82.9385 70.0251C83.1885 69.5482 83.0034 68.9583 82.526 68.7083Z" fill="black"/>
<path d="M76.2086 74.5566H73.9258C73.3863 74.5566 72.9492 74.9937 72.9492 75.5332C72.9492 76.0727 73.3863 76.5098 73.9258 76.5098H76.2086C76.748 76.5098 77.1852 76.0727 77.1852 75.5332C77.1852 74.9937 76.748 74.5566 76.2086 74.5566Z" fill="black"/>
</g>
<defs>
<clipPath id="clip0_46_556">
<rect width="100" height="100" fill="white"/>
</clipPath>
</defs>
</svg>
