<svg width="100" height="100" viewBox="0 0 100 100" fill="none" xmlns="http://www.w3.org/2000/svg">
<path d="M89.0625 10.9375H10.9375C7.48572 10.9375 4.6875 13.7357 4.6875 17.1875V73.4375C4.6875 76.8893 7.48572 79.6875 10.9375 79.6875H89.0625C92.5143 79.6875 95.3125 76.8893 95.3125 73.4375V17.1875C95.3125 13.7357 92.5143 10.9375 89.0625 10.9375Z" fill="#64B5F6"/>
<path d="M89.0625 10.9375H10.9375C7.48572 10.9375 4.6875 13.7357 4.6875 17.1875V73.4375C4.6875 76.8893 7.48572 79.6875 10.9375 79.6875H89.0625C92.5143 79.6875 95.3125 76.8893 95.3125 73.4375V17.1875C95.3125 13.7357 92.5143 10.9375 89.0625 10.9375Z" fill="#64B5F6"/>
<path d="M82.8125 17.1875H17.1875C17.1877 18.0083 17.0262 18.8212 16.7122 19.5795C16.3982 20.3379 15.9378 21.027 15.3574 21.6074C14.777 22.1878 14.0879 22.6482 13.3295 22.9622C12.5712 23.2762 11.7583 23.4377 10.9375 23.4375V67.1875C11.7583 67.1873 12.5712 67.3488 13.3295 67.6628C14.0879 67.9768 14.777 68.4372 15.3574 69.0176C15.9378 69.598 16.3982 70.2871 16.7122 71.0455C17.0262 71.8038 17.1877 72.6167 17.1875 73.4375H82.8125C82.8123 72.6167 82.9738 71.8038 83.2878 71.0455C83.6018 70.2871 84.0622 69.598 84.6426 69.0176C85.223 68.4372 85.9121 67.9768 86.6705 67.6628C87.4288 67.3488 88.2417 67.1873 89.0625 67.1875V23.4375C88.2417 23.4377 87.4288 23.2762 86.6705 22.9622C85.9121 22.6482 85.223 22.1878 84.6426 21.6074C84.0622 21.027 83.6018 20.3379 83.2878 19.5795C82.9738 18.8212 82.8123 18.0083 82.8125 17.1875Z" fill="#EEEEEE"/>
<path d="M89.0625 23.4375V67.1875C88.2417 67.1873 87.4288 67.3488 86.6705 67.6628C85.9121 67.9768 85.223 68.4372 84.6426 69.0176C84.0622 69.598 83.6018 70.2871 83.2878 71.0455C82.9738 71.8038 82.8123 72.6167 82.8125 73.4375H17.1875C17.188 72.5498 16.9987 71.6723 16.6322 70.8638C16.2656 70.0554 15.7305 69.3346 15.0625 68.75H75C74.9998 67.9292 75.1613 67.1163 75.4753 66.358C75.7893 65.5996 76.2497 64.9105 76.8301 64.3301C77.4105 63.7497 78.0996 63.2893 78.858 62.9753C79.6163 62.6613 80.4292 62.4998 81.25 62.5V23.4375C80.4292 23.4377 79.6163 23.2762 78.858 22.9622C78.0996 22.6482 77.4105 22.1878 76.8301 21.6074C76.2497 21.027 75.7893 20.3379 75.4753 19.5795C75.1613 18.8212 74.9998 18.0083 75 17.1875H82.8125C82.8123 18.0083 82.9738 18.8212 83.2878 19.5795C83.6018 20.3379 84.0622 21.027 84.6426 21.6074C85.223 22.1878 85.9121 22.6482 86.6705 22.9622C87.4288 23.2762 88.2417 23.4377 89.0625 23.4375Z" fill="#E0E0E0"/>
<path d="M73.4375 89.0625L67.1875 82.8125L60.9375 89.0625V68.75H73.4375V89.0625Z" fill="#EF5350"/>
<path d="M68.75 68.75H60.9375V73.4492C61.5398 73.5475 62.1561 73.5167 62.7457 73.3589L62.78 73.3498C63.0039 73.2964 63.2377 73.3014 63.4591 73.3644C63.6804 73.4273 63.8819 73.546 64.0442 73.7091C64.8797 74.5387 66.0101 75.003 67.1875 75C67.3744 74.977 67.5641 74.992 67.745 75.0442C67.926 75.0964 68.0945 75.1846 68.2405 75.3036C68.3864 75.4227 68.5068 75.57 68.5944 75.7367C68.682 75.9034 68.7349 76.0862 68.75 76.2739V84.375L73.4375 89.0625V68.75H68.75Z" fill="#E53935"/>
<path d="M80.4097 61.4201L80.4037 61.4261C80.0486 61.7853 79.7931 62.2309 79.6624 62.7189C79.5318 63.2068 79.5304 63.7204 79.6586 64.2091L79.6596 64.213C79.8541 64.9546 79.748 65.7429 79.3643 66.4066C78.9807 67.0703 78.3505 67.5557 77.6109 67.7573C77.1224 67.8905 76.6768 68.1489 76.3187 68.507C75.9607 68.865 75.7023 69.3102 75.5692 69.7987C75.3675 70.5384 74.882 71.1685 74.2182 71.5521C73.5545 71.9357 72.7661 72.0417 72.0246 71.8472L72.0215 71.8464C71.5329 71.7182 71.0192 71.7194 70.5311 71.8501C70.0431 71.9807 69.5975 72.2362 69.2382 72.5915L69.2325 72.5971C68.688 73.1355 67.9531 73.4374 67.1874 73.4374C66.4216 73.4374 65.6868 73.1355 65.1423 72.5971L65.1363 72.5912C64.777 72.236 64.3315 71.9805 63.8435 71.8498C63.3555 71.7192 62.8419 71.7179 62.3533 71.846L62.3493 71.8471C61.6078 72.0415 60.8195 71.9354 60.1558 71.5518C59.4921 71.1681 59.0067 70.538 58.8051 69.7984C58.6719 69.3099 58.4135 68.8643 58.0555 68.5062C57.6975 68.1482 57.2522 67.8898 56.7637 67.7567C56.024 67.555 55.3939 67.0695 55.0103 66.4057C54.6267 65.742 54.5207 64.9536 54.7153 64.2121L54.716 64.2091C54.8443 63.7204 54.843 63.2067 54.7123 62.7186C54.5817 62.2306 54.3262 61.785 53.9709 61.4257L53.9653 61.42C53.4269 60.8755 53.125 60.1406 53.125 59.3749C53.125 58.6091 53.4269 57.8743 53.9653 57.3298L53.9713 57.3238C54.3264 56.9645 54.5819 56.519 54.7126 56.031C54.8432 55.543 54.8445 55.0294 54.7164 54.5408L54.7154 54.5368C54.5209 53.7953 54.627 53.007 55.0107 52.3433C55.3943 51.6796 56.0244 51.1942 56.764 50.9926C57.2525 50.8594 57.6981 50.601 58.0562 50.243C58.4142 49.885 58.6726 49.4397 58.8058 48.9512C59.0074 48.2116 59.4929 47.5814 60.1567 47.1978C60.8205 46.8142 61.6088 46.7082 62.3504 46.9028L62.3534 46.9035C62.8421 47.0318 63.3557 47.0305 63.8438 46.8998C64.3318 46.7692 64.7774 46.5137 65.1367 46.1584L65.1424 46.1528C65.687 45.6144 66.4218 45.3125 67.1875 45.3125C67.9533 45.3125 68.6881 45.6144 69.2326 46.1528L69.2387 46.1588C69.5979 46.5139 70.0434 46.7694 70.5314 46.9001C71.0194 47.0307 71.533 47.032 72.0216 46.9039L72.0256 46.9029C72.7671 46.7084 73.5554 46.8145 74.2191 47.1982C74.8828 47.5818 75.3682 48.2119 75.5698 48.9515C75.703 49.44 75.9614 49.8856 76.3195 50.2437C76.6775 50.6017 77.1227 50.8601 77.6112 50.9933C78.3509 51.1949 78.981 51.6804 79.3646 52.3442C79.7482 53.008 79.8542 53.7963 79.6597 54.5379L79.6589 54.5409C79.5307 55.0296 79.5319 55.5432 79.6626 56.0313C79.7932 56.5193 80.0487 56.9649 80.404 57.3242L80.4096 57.3299C80.948 57.8745 81.2499 58.6093 81.2499 59.375C81.2499 60.1407 80.948 60.8756 80.4097 61.4201Z" fill="#FFB74D"/>
<path d="M67.1875 65.625C70.6393 65.625 73.4375 62.8268 73.4375 59.375C73.4375 55.9232 70.6393 53.125 67.1875 53.125C63.7357 53.125 60.9375 55.9232 60.9375 59.375C60.9375 62.8268 63.7357 65.625 67.1875 65.625Z" fill="#FFD54F"/>
<path d="M80.4062 61.422C80.051 61.7809 79.795 62.2259 79.6635 62.7135C79.5321 63.201 79.5295 63.7144 79.6563 64.2032V64.2189C79.853 64.9586 79.7479 65.7461 79.3641 66.4084C78.9802 67.0706 78.349 67.5532 77.6094 67.7501C77.1218 67.8881 76.6777 68.1487 76.3194 68.507C75.961 68.8653 75.7005 69.3094 75.5625 69.797C75.3982 70.4126 75.0347 70.9565 74.5287 71.3437C74.0227 71.731 73.4028 71.9398 72.7656 71.9376C72.5179 71.9363 72.2713 71.9048 72.0312 71.8439H72.0156C71.5268 71.7172 71.0134 71.7197 70.5259 71.8512C70.0383 71.9827 69.5933 72.2386 69.2344 72.5939C68.6902 73.1343 67.9544 73.4376 67.1875 73.4376C66.4206 73.4376 65.6848 73.1343 65.1406 72.5939C64.5944 72.0566 63.8599 71.7538 63.0938 71.7501C62.8459 71.7495 62.5991 71.781 62.3594 71.8439H62.3438C61.6041 72.0406 60.8165 71.9355 60.1543 71.5517C59.492 71.1678 59.0094 70.5367 58.8125 69.797C58.6852 69.3377 58.4432 68.9184 58.1094 68.5782C58.5298 68.6224 58.9523 68.6433 59.375 68.6407C63.0753 68.6397 66.6237 67.1694 69.2402 64.5529C71.8567 61.9364 73.3271 58.3879 73.3281 54.6876C73.3331 51.9387 72.517 49.2509 70.9844 46.9689C71.0811 46.9947 71.1813 47.0052 71.2812 47.0001C71.5291 47.0007 71.7759 46.9692 72.0156 46.9064H72.0312C72.771 46.7096 73.5585 46.8146 74.2208 47.1985C74.883 47.5824 75.3656 48.2136 75.5625 48.9532C75.7005 49.4408 75.9611 49.8849 76.3194 50.2432C76.6777 50.6016 77.1218 50.8621 77.6094 51.0001C78.225 51.1645 78.7688 51.528 79.1561 52.0339C79.5433 52.5399 79.7522 53.1598 79.75 53.797C79.7486 54.0447 79.7172 54.2913 79.6563 54.5314V54.547C79.5295 55.0358 79.5321 55.5492 79.6635 56.0368C79.795 56.5243 80.051 56.9694 80.4062 57.3282C80.9467 57.8724 81.25 58.6082 81.25 59.3751C81.25 60.142 80.9467 60.8778 80.4062 61.422Z" fill="#FFA726"/>
<path d="M73.4375 59.375C73.4373 60.8693 72.9011 62.314 71.9263 63.4465C70.9514 64.579 69.6026 65.3243 68.125 65.5469C70.706 63.4813 72.4629 60.5605 73.0781 57.3125C73.3174 57.9738 73.439 58.6718 73.4375 59.375Z" fill="#FFCA28"/>
<path d="M39.0625 28.125C38.6481 28.125 38.2507 27.9604 37.9576 27.6674C37.6646 27.3743 37.5 26.9769 37.5 26.5625C37.5 26.1481 37.6646 25.7507 37.9576 25.4576C38.2507 25.1646 38.6481 25 39.0625 25H60.9375C61.3519 25 61.7493 25.1646 62.0424 25.4576C62.3354 25.7507 62.5 26.1481 62.5 26.5625C62.5 26.9769 62.3354 27.3743 62.0424 27.6674C61.7493 27.9604 61.3519 28.125 60.9375 28.125H39.0625ZM70.3125 34.375C69.8981 34.375 69.5007 34.5396 69.2076 34.8326C68.9146 35.1257 68.75 35.5231 68.75 35.9375C68.75 36.3519 68.9146 36.7493 69.2076 37.0424C69.5007 37.3354 69.8981 37.5 70.3125 37.5H79.6875C80.1019 37.5 80.4993 37.3354 80.7924 37.0424C81.0854 36.7493 81.25 36.3519 81.25 35.9375C81.25 35.5231 81.0854 35.1257 80.7924 34.8326C80.4993 34.5396 80.1019 34.375 79.6875 34.375H70.3125ZM65.625 35.9375C65.6251 35.7323 65.5847 35.5291 65.5062 35.3395C65.4277 35.1499 65.3126 34.9776 65.1675 34.8325C65.0224 34.6874 64.8501 34.5723 64.6605 34.4938C64.4709 34.4153 64.2677 34.3749 64.0625 34.375H20.3125C19.8981 34.375 19.5007 34.5396 19.2076 34.8326C18.9146 35.1257 18.75 35.5231 18.75 35.9375C18.75 36.3519 18.9146 36.7493 19.2076 37.0424C19.5007 37.3354 19.8981 37.5 20.3125 37.5H64.0625C64.2677 37.5001 64.4709 37.4597 64.6605 37.3812C64.8501 37.3027 65.0224 37.1876 65.1675 37.0425C65.3126 36.8974 65.4277 36.7251 65.5062 36.5355C65.5847 36.3459 65.6251 36.1427 65.625 35.9375ZM51.5625 45.3125C51.5626 45.1073 51.5222 44.9041 51.4437 44.7145C51.3652 44.5249 51.2501 44.3526 51.105 44.2075C50.9599 44.0624 50.7876 43.9473 50.598 43.8688C50.4084 43.7903 50.2052 43.75 50 43.75H20.3125C19.8981 43.75 19.5007 43.9146 19.2076 44.2076C18.9146 44.5007 18.75 44.8981 18.75 45.3125C18.75 45.7269 18.9146 46.1243 19.2076 46.4174C19.5007 46.7104 19.8981 46.875 20.3125 46.875H50C50.2052 46.8751 50.4084 46.8347 50.598 46.7562C50.7876 46.6777 50.9599 46.5626 51.105 46.4175C51.2501 46.2724 51.3652 46.1001 51.4437 45.9105C51.5222 45.7209 51.5626 45.5177 51.5625 45.3125ZM46.875 54.6875C46.8751 54.4823 46.8347 54.2791 46.7562 54.0895C46.6777 53.8999 46.5626 53.7276 46.4175 53.5825C46.2724 53.4374 46.1001 53.3223 45.9105 53.2438C45.7209 53.1653 45.5177 53.125 45.3125 53.125H35.9375C35.5231 53.125 35.1257 53.2896 34.8326 53.5826C34.5396 53.8757 34.375 54.2731 34.375 54.6875C34.375 55.1019 34.5396 55.4993 34.8326 55.7924C35.1257 56.0854 35.5231 56.25 35.9375 56.25H45.3125C45.5177 56.2501 45.7209 56.2097 45.9105 56.1312C46.1001 56.0527 46.2724 55.9376 46.4175 55.7925C46.5626 55.6474 46.6777 55.4751 46.7562 55.2855C46.8347 55.0959 46.8751 54.8927 46.875 54.6875ZM31.25 54.6875C31.2501 54.4823 31.2097 54.2791 31.1312 54.0895C31.0527 53.8999 30.9376 53.7276 30.7925 53.5825C30.6474 53.4374 30.4751 53.3223 30.2855 53.2438C30.0959 53.1653 29.8927 53.125 29.6875 53.125H20.3125C19.8981 53.125 19.5007 53.2896 19.2076 53.5826C18.9146 53.8757 18.75 54.2731 18.75 54.6875C18.75 55.1019 18.9146 55.4993 19.2076 55.7924C19.5007 56.0854 19.8981 56.25 20.3125 56.25H29.6875C29.8927 56.2501 30.0959 56.2097 30.2855 56.1312C30.4751 56.0527 30.6474 55.9376 30.7925 55.7925C30.9376 55.6474 31.0527 55.4751 31.1312 55.2855C31.2097 55.0959 31.2501 54.8927 31.25 54.6875ZM26.5625 65.625H42.1875C42.6019 65.625 42.9993 65.4604 43.2924 65.1674C43.5854 64.8743 43.75 64.4769 43.75 64.0625C43.75 63.6481 43.5854 63.2507 43.2924 62.9576C42.9993 62.6646 42.6019 62.5 42.1875 62.5H26.5625C26.1481 62.5 25.7507 62.6646 25.4576 62.9576C25.1646 63.2507 25 63.6481 25 64.0625C25 64.4769 25.1646 64.8743 25.4576 65.1674C25.7507 65.4604 26.1481 65.625 26.5625 65.625ZM78.0212 69.265C77.7953 69.3273 77.5894 69.4472 77.4238 69.6131C77.2583 69.7789 77.1386 69.985 77.0767 70.211C76.7659 71.3451 76.0194 72.3104 75 72.8964V89.0625C75 89.3715 74.9084 89.6736 74.7367 89.9306C74.565 90.1875 74.321 90.3878 74.0355 90.506C73.75 90.6243 73.4358 90.6552 73.1328 90.5949C72.8297 90.5346 72.5513 90.3857 72.3328 90.1672L67.1875 85.022L62.0422 90.1673C61.8237 90.3858 61.5453 90.5346 61.2422 90.5949C60.9391 90.6552 60.625 90.6243 60.3395 90.506C60.054 90.3878 59.81 90.1875 59.6383 89.9306C59.4666 89.6736 59.375 89.3715 59.375 89.0625V72.8976C58.355 72.3109 57.6085 71.3446 57.2983 70.2095C57.2362 69.9836 57.1165 69.7777 56.951 69.612C56.7854 69.4463 56.5796 69.3264 56.3538 69.2642C55.2189 68.9509 54.2525 68.2042 53.6631 67.1851C53.0737 66.1659 52.9084 64.956 53.2028 63.8161L53.212 63.7832C53.2646 63.5608 53.2598 63.3287 53.1982 63.1087C53.1365 62.8886 53.02 62.6878 52.8595 62.5251C52.0334 61.6862 51.57 60.5563 51.5692 59.379C51.5683 58.2016 52.0301 57.071 52.8549 56.2309C53.0175 56.0672 53.1356 55.8646 53.1978 55.6424C53.26 55.4202 53.2644 55.1857 53.2105 54.9614L53.2028 54.9331C52.9084 53.7932 53.0737 52.5833 53.6631 51.5641C54.2525 50.5449 55.2189 49.7982 56.3538 49.485C56.5797 49.4227 56.7856 49.3027 56.9512 49.1369C57.1167 48.971 57.2364 48.765 57.2983 48.5389C57.611 47.404 58.3576 46.4377 59.3769 45.8487C60.3962 45.2597 61.6062 45.0953 62.7457 45.391C62.9724 45.4511 63.2108 45.451 63.4374 45.3908C63.664 45.3306 63.8711 45.2123 64.0381 45.0477C64.8762 44.2208 66.0058 43.7566 67.1832 43.7555C68.3606 43.7544 69.4911 44.2163 70.3308 45.0416C70.4976 45.2072 70.7046 45.3266 70.9314 45.3881C71.1582 45.4497 71.3971 45.4512 71.6247 45.3926C72.7648 45.0969 73.9754 45.2612 74.9953 45.8501C76.0153 46.439 76.7629 47.4053 77.0767 48.5405C77.1388 48.7664 77.2585 48.9722 77.424 49.138C77.5896 49.3037 77.7954 49.4235 78.0212 49.4858C79.1561 49.799 80.1225 50.5457 80.7119 51.5649C81.3013 52.584 81.4666 53.794 81.1722 54.9339L81.163 54.9667C81.1104 55.1891 81.1152 55.4212 81.1768 55.6413C81.2385 55.8613 81.355 56.0621 81.5155 56.2248C82.3416 57.0638 82.805 58.1937 82.8058 59.371C82.8067 60.5484 82.3449 61.679 81.5201 62.5191C81.4941 62.5458 81.4667 62.5717 81.4377 62.5961L81.4316 62.6015C81.2961 62.764 81.2012 62.9564 81.1548 63.1628C81.1083 63.3692 81.1117 63.5837 81.1645 63.7886L81.1722 63.8168C81.4666 64.9567 81.3013 66.1667 80.7119 67.1859C80.1225 68.205 79.1561 68.9517 78.0212 69.265ZM71.875 85.2905V73.3973C71.793 73.3808 71.7112 73.3804 71.6293 73.3589C71.4026 73.2995 71.1643 73.2999 70.9378 73.36C70.7113 73.4202 70.5042 73.5381 70.3369 73.7022C69.4987 74.5288 68.369 74.9928 67.1918 74.9939C66.0145 74.995 64.884 74.5333 64.0442 73.7084C63.8777 73.5422 63.6708 73.4225 63.4439 73.3609C63.2169 73.2994 62.9778 73.2982 62.7503 73.3574C62.6668 73.3793 62.5835 73.3798 62.5 73.3966V85.2905L66.0828 81.7077C66.2279 81.5626 66.4001 81.4475 66.5896 81.3689C66.7792 81.2904 66.9824 81.25 67.1875 81.25C67.3927 81.25 67.5959 81.2904 67.7855 81.3689C67.975 81.4475 68.1472 81.5626 68.2923 81.7077L71.875 85.2905ZM79.2984 58.4281C78.7522 57.8748 78.3591 57.1891 78.1574 56.4381C77.9557 55.6872 77.9525 54.8968 78.1479 54.1442L78.1555 54.113C78.2356 53.7729 78.1808 53.4151 78.0027 53.1145C77.8246 52.814 77.537 52.594 77.2003 52.5009C76.45 52.2947 75.7662 51.8969 75.2162 51.3464C74.6661 50.796 74.2688 50.1119 74.0631 49.3614C73.9692 49.0195 73.7444 48.7284 73.4374 48.5511C73.1304 48.3737 72.7659 48.3244 72.4228 48.4138C71.671 48.6111 70.8807 48.6094 70.1297 48.4087C69.3788 48.2081 68.6929 47.8154 68.1397 47.2694C67.8877 47.0189 67.5471 46.8778 67.1918 46.8767C66.8365 46.8756 66.4951 47.0145 66.2415 47.2633C65.6878 47.8094 65.002 48.2025 64.251 48.4043C63.5001 48.606 62.7096 48.6096 61.9568 48.4146C61.6133 48.3236 61.2477 48.3721 60.9398 48.5496C60.6319 48.7271 60.4068 49.0192 60.3134 49.3622C60.1071 50.1124 59.7093 50.7961 59.159 51.3462C58.6088 51.8963 57.925 52.2939 57.1747 52.5001C56.837 52.5934 56.5488 52.8143 56.3709 53.116C56.193 53.4178 56.1392 53.7769 56.221 54.1176L56.2271 54.1443C56.4227 54.8953 56.4201 55.6841 56.2198 56.4339C56.0195 57.1836 55.6283 57.8686 55.0843 58.4221C54.8335 58.6742 54.6922 59.0148 54.6907 59.3704C54.6893 59.7259 54.8279 60.0678 55.0766 60.3219C55.6228 60.8753 56.0159 61.561 56.2176 62.3119C56.4193 63.0628 56.4225 63.8532 56.2271 64.6058L56.2195 64.637C56.1394 64.9771 56.1942 65.3349 56.3723 65.6355C56.5504 65.9361 56.838 66.156 57.1747 66.2491C57.925 66.4553 58.6088 66.8532 59.1588 67.4036C59.7089 67.954 60.1062 68.6381 60.3119 69.3886C60.4058 69.7305 60.6306 70.0216 60.9376 70.199C61.2446 70.3763 61.6091 70.4256 61.9522 70.3362C62.3212 70.2392 62.7013 70.1902 63.0829 70.1905C64.2623 70.1899 65.3947 70.6533 66.2353 71.4806C66.4877 71.7304 66.8281 71.871 67.1832 71.8722C67.5382 71.8733 67.8796 71.7349 68.1335 71.4867C68.6871 70.9405 69.3729 70.5473 70.1239 70.3455C70.8749 70.1437 71.6654 70.1402 72.4182 70.3354C72.7617 70.4266 73.1274 70.3781 73.4353 70.2006C73.7432 70.023 73.9684 69.7308 74.0615 69.3878C74.2679 68.6376 74.6657 67.9539 75.216 67.4038C75.7662 66.8537 76.45 66.4561 77.2003 66.2499C77.538 66.1566 77.8262 65.9357 78.0041 65.634C78.182 65.3322 78.2358 64.9731 78.154 64.6325L78.1479 64.6058C77.9523 63.8547 77.9549 63.0659 78.1552 62.3161C78.3555 61.5664 78.7467 60.8814 79.2907 60.3279L79.2984 60.3218C79.5463 60.0691 79.6852 59.7291 79.6852 59.375C79.6853 59.0209 79.5464 58.6809 79.2984 58.4281ZM81.4072 71.875H79.6875C79.2731 71.875 78.8757 72.0396 78.5826 72.3326C78.2896 72.6257 78.125 73.0231 78.125 73.4375C78.125 73.8519 78.2896 74.2493 78.5826 74.5424C78.8757 74.8354 79.2731 75 79.6875 75H82.8125C83.0177 75.0001 83.2209 74.9597 83.4105 74.8812C83.6001 74.8027 83.7724 74.6876 83.9175 74.5425C84.0626 74.3974 84.1777 74.2251 84.2562 74.0355C84.3347 73.8459 84.3751 73.6427 84.375 73.4375C84.3764 72.1947 84.8707 71.0032 85.7494 70.1244C86.6282 69.2457 87.8197 68.7514 89.0625 68.75C89.2677 68.7501 89.4709 68.7097 89.6605 68.6312C89.8501 68.5527 90.0224 68.4376 90.1675 68.2925C90.3126 68.1474 90.4277 67.9751 90.5062 67.7855C90.5847 67.5959 90.6251 67.3927 90.625 67.1875V23.4375C90.6251 23.2323 90.5847 23.0291 90.5062 22.8395C90.4277 22.6499 90.3126 22.4776 90.1675 22.3325C90.0224 22.1874 89.8501 22.0723 89.6605 21.9938C89.4709 21.9153 89.2677 21.8749 89.0625 21.875C87.8197 21.8736 86.6282 21.3793 85.7494 20.5006C84.8707 19.6218 84.3764 18.4303 84.375 17.1875C84.3751 16.9823 84.3347 16.7791 84.2562 16.5895C84.1777 16.3999 84.0626 16.2276 83.9175 16.0825C83.7724 15.9374 83.6001 15.8223 83.4105 15.7438C83.2209 15.6653 83.0177 15.6249 82.8125 15.625H17.1875C16.9823 15.6249 16.7791 15.6653 16.5895 15.7438C16.3999 15.8223 16.2276 15.9374 16.0825 16.0825C15.9374 16.2276 15.8223 16.3999 15.7438 16.5895C15.6653 16.7791 15.6249 16.9823 15.625 17.1875C15.6236 18.4303 15.1293 19.6218 14.2506 20.5006C13.3718 21.3793 12.1803 21.8736 10.9375 21.875C10.7323 21.8749 10.5291 21.9153 10.3395 21.9938C10.1499 22.0723 9.97763 22.1874 9.83253 22.3325C9.68742 22.4776 9.57233 22.6499 9.49383 22.8395C9.41533 23.0291 9.37495 23.2323 9.375 23.4375V67.1875C9.37495 67.3927 9.41533 67.5959 9.49383 67.7855C9.57233 67.9751 9.68742 68.1474 9.83253 68.2925C9.97763 68.4376 10.1499 68.5527 10.3395 68.6312C10.5291 68.7097 10.7323 68.7501 10.9375 68.75C12.1803 68.7514 13.3718 69.2457 14.2506 70.1244C15.1293 71.0032 15.6236 72.1947 15.625 73.4375C15.6249 73.6427 15.6653 73.8459 15.7438 74.0355C15.8223 74.2251 15.9374 74.3974 16.0825 74.5425C16.2276 74.6876 16.3999 74.8027 16.5895 74.8812C16.7791 74.9597 16.9823 75.0001 17.1875 75H54.6875C55.1019 75 55.4993 74.8354 55.7924 74.5424C56.0854 74.2493 56.25 73.8519 56.25 73.4375C56.25 73.0231 56.0854 72.6257 55.7924 72.3326C55.4993 72.0396 55.1019 71.875 54.6875 71.875H18.5928C18.2837 70.3752 17.5419 68.9988 16.4591 67.9159C15.3762 66.8331 13.9998 66.0913 12.5 65.7822V24.8428C13.9998 24.5337 15.3762 23.7919 16.4591 22.7091C17.5419 21.6262 18.2837 20.2498 18.5928 18.75H81.4072C81.7163 20.2498 82.4581 21.6262 83.5409 22.7091C84.6238 23.7919 86.0002 24.5337 87.5 24.8428V65.7822C86.0002 66.0913 84.6238 66.8331 83.5409 67.9159C82.4581 68.9988 81.7163 70.3752 81.4072 71.875ZM89.0625 9.375H10.9375C8.86624 9.37743 6.88052 10.2013 5.41591 11.6659C3.95131 13.1305 3.12743 15.1162 3.125 17.1875V73.4375C3.12743 75.5088 3.95131 77.4945 5.41591 78.9591C6.88052 80.4237 8.86624 81.2476 10.9375 81.25H54.6875C55.1019 81.25 55.4993 81.0854 55.7924 80.7924C56.0854 80.4993 56.25 80.1019 56.25 79.6875C56.25 79.2731 56.0854 78.8757 55.7924 78.5826C55.4993 78.2896 55.1019 78.125 54.6875 78.125H10.9375C9.69471 78.1236 8.50322 77.6294 7.62444 76.7506C6.74565 75.8718 6.25136 74.6803 6.25 73.4375V17.1875C6.25136 15.9447 6.74565 14.7532 7.62444 13.8744C8.50322 12.9957 9.69471 12.5014 10.9375 12.5H89.0625C90.3053 12.5014 91.4968 12.9957 92.3756 13.8744C93.2543 14.7532 93.7486 15.9447 93.75 17.1875V73.4375C93.7486 74.6803 93.2543 75.8718 92.3756 76.7506C91.4968 77.6294 90.3053 78.1236 89.0625 78.125H79.6875C79.2731 78.125 78.8757 78.2896 78.5826 78.5826C78.2896 78.8757 78.125 79.2731 78.125 79.6875C78.125 80.1019 78.2896 80.4993 78.5826 80.7924C78.8757 81.0854 79.2731 81.25 79.6875 81.25H89.0625C91.1338 81.2476 93.1195 80.4237 94.5841 78.9591C96.0487 77.4945 96.8726 75.5088 96.875 73.4375V17.1875C96.8726 15.1162 96.0487 13.1305 94.5841 11.6659C93.1195 10.2013 91.1338 9.37743 89.0625 9.375ZM75 59.375C75 60.9202 74.5418 62.4306 73.6834 63.7154C72.8249 65.0002 71.6048 66.0015 70.1772 66.5928C68.7497 67.1841 67.1788 67.3388 65.6634 67.0374C64.1479 66.7359 62.7558 65.9919 61.6632 64.8993C60.5706 63.8067 59.8266 62.4146 59.5251 60.8991C59.2237 59.3837 59.3784 57.8128 59.9697 56.3853C60.561 54.9577 61.5623 53.7376 62.8471 52.8791C64.1319 52.0207 65.6423 51.5625 67.1875 51.5625C69.2588 51.5649 71.2445 52.3888 72.7091 53.8534C74.1737 55.318 74.9976 57.3037 75 59.375ZM71.875 59.375C71.875 58.4479 71.6001 57.5416 71.085 56.7708C70.5699 55.9999 69.8379 55.3991 68.9813 55.0443C68.1248 54.6895 67.1823 54.5967 66.273 54.7776C65.3637 54.9584 64.5285 55.4049 63.8729 56.0604C63.2174 56.716 62.7709 57.5512 62.5901 58.4605C62.4092 59.3698 62.502 60.3123 62.8568 61.1688C63.2116 62.0254 63.8124 62.7574 64.5833 63.2725C65.3541 63.7876 66.2604 64.0625 67.1875 64.0625C68.4303 64.0611 69.6218 63.5669 70.5006 62.6881C71.3793 61.8093 71.8736 60.6178 71.875 59.375Z" fill="black"/>
</svg>
