<svg width="100" height="100" viewBox="0 0 100 100" fill="none" xmlns="http://www.w3.org/2000/svg">
<path d="M98.5688 45.4149L98.574 45.4417C98.993 47.5632 97.6121 49.621 95.4928 50.0395L63.1078 56.4349L61.5859 48.7286L93.9709 42.3333C96.0904 41.9151 98.1498 43.2936 98.5688 45.4149Z" fill="#D63030"/>
<path d="M98.5688 45.4152L98.5715 45.4286L80.4641 49.0044C78.0623 49.4788 75.7178 48.2423 74.6924 46.1409L93.9709 42.3339C96.0904 41.9153 98.1498 43.2939 98.5688 45.4152Z" fill="#F44545"/>
<path d="M70.5949 42.3385L70.6094 42.4115C71.1072 44.9322 71.0765 47.4336 70.591 49.8033C69.1222 57.001 63.4767 62.9687 55.8187 64.481L23.6986 70.824C13.5201 72.8342 3.63923 66.2123 1.62908 56.0336L1.61462 55.9605C1.40505 54.899 2.09568 53.8711 3.15525 53.6615L68.2957 40.7976C69.3556 40.5886 70.3851 41.2769 70.5949 42.3385Z" fill="#5A5555"/>
<path d="M70.5948 42.3386L70.6093 42.4116C71.1071 44.9323 71.0765 47.4337 70.5909 49.8034C68.2597 51.7358 65.4278 53.1329 62.2487 53.7606L30.1306 60.1032C22.4687 61.6163 14.978 58.2386 10.8843 52.1354L68.2958 40.7979C69.3556 40.5888 70.3851 41.277 70.5948 42.3386Z" fill="#736E6E"/>
<path d="M7.94279 8.64007C7.54513 7.01917 8.14142 5.24768 9.58361 4.22073C11.4713 2.87659 14.0914 3.31702 15.4358 5.20491C16.7799 7.09261 16.3395 9.71272 14.4516 11.0571C14.2957 11.168 14.134 11.2645 13.9694 11.3514L20.8313 20.9877C21.4543 21.8629 21.2483 23.0885 20.3733 23.7117L18.1193 25.3168C17.2443 25.9399 16.0186 25.7338 15.3953 24.8588L8.53361 15.2219C8.39767 15.349 8.25373 15.4703 8.09787 15.5815C6.20998 16.9256 3.59005 16.4852 2.24572 14.5973C0.901382 12.7094 1.34201 10.0895 3.2299 8.74514C4.67208 7.718 6.54103 7.73401 7.94279 8.64007Z" fill="#EBE1DC"/>
<path d="M43.1194 22.15C39.7883 24.973 39.3764 29.9619 42.1997 33.2927C45.0227 36.6238 50.0116 37.0355 53.3424 34.2125C55.0378 32.7759 55.9749 30.7781 56.1165 28.7236C56.9762 28.4998 57.8004 28.0841 58.5239 27.4712C61.0995 25.2884 61.4178 21.431 59.235 18.8554C57.0522 16.2798 53.1948 15.9615 50.6192 18.1441C49.896 18.757 49.351 19.5019 48.9889 20.3134C46.9387 20.1162 44.8143 20.7132 43.1194 22.15Z" fill="#6E9213"/>
<path d="M36.1589 14.3798C38.7106 14.3798 40.7792 12.3112 40.7792 9.75947C40.7792 7.20774 38.7106 5.13916 36.1589 5.13916C33.6072 5.13916 31.5386 7.20774 31.5386 9.75947C31.5386 12.3112 33.6072 14.3798 36.1589 14.3798Z" fill="#D63030"/>
<path d="M8.41133 46.8498C10.9631 46.8498 13.0316 44.7812 13.0316 42.2294C13.0316 39.6777 10.9631 37.6091 8.41133 37.6091C5.8596 37.6091 3.79102 39.6777 3.79102 42.2294C3.79102 44.7812 5.8596 46.8498 8.41133 46.8498Z" fill="#D63030"/>
<path d="M33.3136 37.2539C32.8126 38.6454 31.9614 39.835 30.7638 40.6883C26.8482 43.4768 20.7153 41.5827 17.0638 36.4577C13.4142 31.3307 11.1735 20.6696 15.0913 17.883C16.3398 16.9946 18.0599 17.0122 19.9464 17.6149C23.9796 18.9045 28.7581 22.867 31.2454 26.3582C33.7794 29.9176 34.4507 34.0975 33.3136 37.2539Z" fill="#F77026"/>
<path d="M33.3139 37.2538C30.0225 37.205 26.4021 35.2128 23.9268 31.7374C21.4062 28.1974 19.559 22.0177 19.9465 17.6147C23.9797 18.9044 28.7582 22.8669 31.2455 26.3581C33.7797 29.9175 34.451 34.0974 33.3139 37.2538Z" fill="#FF883E"/>
<path d="M63.8644 78.6945H35.0025C34.5564 78.1269 34.165 77.5047 33.8343 76.8453C32.715 74.632 32.2511 71.9961 32.5036 69.5266C32.9714 64.9709 35.2921 60.8654 37.705 56.9459C37.9888 56.4859 38.6579 56.49 38.9339 56.9537C40.523 59.6248 42.1118 62.2939 43.7009 64.9631C44.922 63.8477 45.8886 62.4582 46.5228 60.9299C46.7536 60.3723 47.5462 60.3408 47.8183 60.883C49.1196 63.4699 49.2136 66.6637 47.9827 69.2935C51.8064 66.2937 54.8435 62.2957 56.7064 57.8047C57.0527 56.9691 57.72 55.9301 58.5751 56.2236C60.0349 56.7207 65.0876 65.2918 61.1915 73.8316C63.8587 72.5459 66.203 70.6008 67.97 68.2232C68.336 67.732 69.1011 67.8906 69.246 68.4855C70.1734 72.3016 67.606 76.683 63.8644 78.6945Z" fill="#FB5858"/>
<path d="M63.2638 78.6944H35.0026C34.5565 78.1269 34.1651 77.5046 33.8345 76.8452C33.8364 76.7984 33.8423 76.7493 33.8462 76.7025C34.2571 72.7105 36.2903 69.1138 38.4058 65.6775C38.6542 65.2743 39.2394 65.2782 39.4821 65.6853C40.8755 68.0237 41.171 70.0472 42.5642 72.3876C43.6325 71.4071 44.6403 68.7724 45.1942 67.4337C45.3978 66.9425 46.0925 66.9171 46.3312 67.3907C47.472 69.6587 48.4915 74.1939 47.4114 76.4989C50.7636 73.8689 53.4249 70.3661 55.0569 66.4308C55.3603 65.6989 55.9454 64.787 56.6948 65.0452C57.9747 65.4796 60.4267 70.3816 57.0118 77.8667C59.3503 76.7396 62.7925 75.5458 64.3423 73.4618C64.6612 73.0314 65.3325 73.1702 65.4597 73.6927C65.796 75.0763 64.7901 76.9021 63.2638 78.6944Z" fill="#FF883E"/>
<path d="M76.6178 91.9964V96.4173C76.6178 97.1798 75.9988 97.7989 75.2361 97.7989H24.7635C24.001 97.7989 23.3818 97.18 23.3818 96.4173V91.9964C23.3818 91.2339 24.0008 90.6147 24.7635 90.6147H75.2365C75.9988 90.6147 76.6178 91.2337 76.6178 91.9964Z" fill="#D63030"/>
<path d="M76.6181 93.3777V96.4171C76.6181 97.1796 75.9991 97.7988 75.2364 97.7988H28.1714V94.7593C28.1714 93.9968 28.7903 93.3777 29.553 93.3777H76.6181Z" fill="#F44545"/>
<path d="M93.5679 40.8644L87.3255 42.1011C86.529 42.2597 86.0124 43.0306 86.171 43.8271C86.3276 44.6216 87.1005 45.1363 87.895 44.9816C94.5058 43.6867 94.2103 43.6959 94.6169 43.6959C95.7792 43.6959 96.787 44.5255 97.012 45.6664L97.0179 45.6957C97.281 47.0275 96.4118 48.3109 95.0942 48.5703L70.9562 53.3509C71.6058 51.672 72.0345 49.9029 72.2183 48.0869L82.1356 46.1222C82.9321 45.9636 83.4487 45.1908 83.2901 44.3962C83.1335 43.6017 82.3606 43.0851 81.5661 43.2417L72.2944 45.0773C72.2147 43.4603 71.9702 42.3693 71.9167 42.0363C71.5997 40.4375 70.1868 39.2771 68.5587 39.2771C67.9323 39.2771 71.0968 38.7314 18.2593 49.175C17.4628 49.3316 16.9462 50.1044 17.1048 50.899C17.2614 51.6935 18.0343 52.2101 18.8288 52.0535L68.4608 42.2222C68.7485 42.1714 68.9864 42.3556 69.0362 42.6078C69.3403 44.5666 69.5708 46.1775 69.1829 48.6878C68.5071 53.075 66.1478 57.0593 62.6567 59.75C60.0196 53.1718 56.7813 53.7941 55.3497 57.2431C54.3653 59.6168 53.0444 61.8339 51.4399 63.8259L50.252 64.0607C50.1073 62.7164 49.7257 61.4091 49.1288 60.2212C48.289 58.5548 45.8757 58.6576 45.1661 60.3679C44.8511 61.1291 44.4401 61.8513 43.9489 62.5087L40.1956 56.2037C39.3493 54.7847 37.3142 54.7824 36.456 56.1763C35.8239 57.1998 35.0843 58.4209 34.3817 59.7105C33.9923 60.4209 34.2546 61.3132 34.9669 61.7007C35.6772 62.0902 36.5696 61.8279 36.9569 61.1175C37.403 60.3015 37.8688 59.507 38.3091 58.7751L42.3833 65.6183C42.4083 65.6459 42.6888 66.297 43.4851 66.4148C43.9233 66.4794 44.3657 66.3443 44.6905 66.0468C45.639 65.1777 46.4489 64.1671 47.0897 63.0724C47.587 64.8931 47.4669 66.925 46.6534 68.671C46.0003 70.0705 47.6804 71.3992 48.8882 70.4478C55.7597 65.0578 57.8778 58.5781 58.3026 57.8847C60.3351 60.3246 62.6854 67.0181 59.8563 73.2226C59.2876 74.4685 60.5929 75.7482 61.8288 75.1541C64.138 74.0386 66.2259 72.4673 67.9519 70.5574C67.7581 73.0994 65.9872 75.749 63.4784 77.2263H35.7501C33.9638 74.5603 33.2345 70.8085 34.7013 66.2189C34.9458 65.4458 34.5192 64.622 33.7464 64.3755C32.9733 64.131 32.1495 64.5576 31.903 65.3304C31.6349 66.1796 31.4235 67.0035 31.271 67.8195C23.9065 69.1962 22.6899 69.7294 19.927 69.7294C11.6964 69.7294 4.56162 63.8607 2.95908 55.771L2.94541 55.6986C2.8915 55.4705 3.03896 55.1804 3.329 55.1232L13.0702 53.1937C13.8667 53.0371 14.3833 52.2642 14.2247 51.4697C14.0681 50.6732 13.2952 50.1586 12.5007 50.3152L2.75947 52.2447C0.953218 52.6005 -0.304009 54.3611 0.0649363 56.2718L0.0805613 56.3423C1.95322 65.8 10.2993 72.6646 19.927 72.6646C23.0683 72.6646 24.7259 72.0232 30.9696 70.872C30.9724 73.1203 31.4849 75.3476 32.4136 77.2789H17.2645C15.1245 77.2789 13.3835 79.0199 13.3835 81.1599V89.4441C13.3835 91.5841 15.1245 93.3252 17.2645 93.3252H21.7233V96.5541C21.7233 97.3648 22.3802 98.0216 23.1909 98.0216H76.8091C77.6198 98.0216 78.2767 97.3648 78.2767 96.5541V93.3261H82.7355C84.8755 93.3261 86.6165 91.5851 86.6165 89.4451V81.1609C86.6165 79.0209 84.8755 77.2798 82.7355 77.2798H67.9788C70.2114 74.7705 71.4503 71.3209 70.6722 68.1392C70.2374 66.3429 67.9046 65.856 66.7917 67.3486C65.9288 68.5089 64.9171 69.558 63.7938 70.4599C64.2862 67.8687 64.179 65.2498 63.5806 62.6912C64.1997 62.39 67.1763 60.132 69.3063 56.6718L95.6634 51.4509C98.1763 50.9519 100 48.7349 100 46.1753C100 42.7693 96.9083 40.2041 93.5679 40.8644ZM17.2645 90.3908C16.7431 90.3908 16.3188 89.9666 16.3188 89.4451V81.1609C16.3188 80.6394 16.7431 80.2152 17.2645 80.2152H48.5323V90.391C45.1614 90.3908 20.8495 90.3908 17.2645 90.3908ZM75.3415 95.0873H24.6587V93.3261H75.3417V95.0873H75.3415ZM82.7356 80.215C83.2571 80.215 83.6813 80.6392 83.6813 81.1607V89.4449C83.6813 89.9664 83.2571 90.3906 82.7356 90.3906C79.3145 90.3906 54.7495 90.3906 51.4679 90.3906V80.2148L82.7356 80.215Z" fill="black"/>
<path d="M41.0799 34.2419C46.258 40.3523 56.1143 37.5101 57.4598 29.8196C61.6594 28.0935 63.3907 23.0612 61.1938 19.1194L65.6215 15.3669C66.2399 14.8429 66.3164 13.9167 65.7924 13.2985C65.2684 12.68 64.3424 12.6034 63.7241 13.1276L59.2961 16.8802C55.7733 14.0708 50.5241 14.9429 48.1286 18.8087C40.3327 18.8755 35.8948 28.1239 41.0799 34.2419ZM48.8479 21.7745C49.477 21.8341 50.0721 21.4876 50.3289 20.9116C51.4561 18.3837 54.5778 17.3792 56.984 18.8396L47.9233 26.5185C46.8787 27.4036 47.5153 29.1058 48.8729 29.1058C49.8465 29.1058 49.4506 28.9046 58.8817 21.0786C59.9266 23.6896 58.4278 26.6058 55.7465 27.3038C55.136 27.4628 54.6953 27.9939 54.6518 28.6233C54.2522 34.4317 47.0082 36.6976 43.319 32.3442C39.5887 27.9427 43.128 21.2222 48.8479 21.7745Z" fill="black"/>
<path d="M36.1597 15.8472C39.5167 15.8472 42.2478 13.1161 42.2478 9.75928C42.2478 6.40244 39.5167 3.67139 36.1597 3.67139C32.8028 3.67139 30.0718 6.40244 30.0718 9.75928C30.0718 13.1161 32.8028 15.8472 36.1597 15.8472ZM36.1597 6.60674C37.8981 6.60674 39.3124 8.02119 39.3124 9.75928C39.3124 11.4974 37.8979 12.9118 36.1597 12.9118C34.4214 12.9118 33.0071 11.4974 33.0071 9.75928C33.0071 8.02119 34.4216 6.60674 36.1597 6.60674Z" fill="black"/>
<path d="M2.32373 42.2292C2.32373 45.5861 5.05479 48.3171 8.41162 48.3171C11.7685 48.3171 14.4995 45.5861 14.4995 42.2292C14.4995 38.8724 11.7685 36.1414 8.41162 36.1414C5.05479 36.1414 2.32373 38.8724 2.32373 42.2292ZM11.5642 42.2292C11.5642 43.9675 10.1497 45.3818 8.41162 45.3818C6.67354 45.3818 5.25908 43.9673 5.25908 42.2292C5.25908 40.4912 6.67354 39.0767 8.41162 39.0767C10.1497 39.0767 11.5642 40.491 11.5642 42.2292Z" fill="black"/>
<path d="M8.16992 17.2429L11.6297 22.0999C11.1719 26.798 13.1328 33.4634 15.8703 37.3087C19.8512 42.897 26.8609 45.2677 31.6152 41.8839C35.8432 38.873 36.8813 31.7476 32.441 25.507C29.7895 21.7851 23.9326 16.7617 18.9816 15.8595L15.9975 11.6677C17.9568 9.72983 18.2588 6.63862 16.6314 4.35287C13.7633 0.325726 7.41797 1.6558 6.45957 6.55639C3.00918 6.07104 0 8.7519 0 12.1667C0 16.3201 4.3918 19.1128 8.16992 17.2429ZM15.9426 19.0765C17.4619 17.9923 20.3482 19.1947 22.0127 20.1156C25.0184 21.7749 28.1867 24.5929 30.0496 27.2093C31.5525 29.3208 32.3803 31.7453 32.3803 34.0408C32.3803 41.9552 23.3152 42.7009 18.2596 35.6062C14.8709 30.8437 13.033 21.1421 15.9426 19.0765ZM7.14648 9.87338C8.26367 10.5921 9.68223 9.57475 9.36758 8.29018C8.94981 6.55541 10.2594 4.90873 12.0133 4.90873C14.8107 4.90873 15.8338 8.67436 13.2852 10.0533C12.4988 10.465 12.2588 11.4816 12.7744 12.2019L15.5043 16.0355C15.0504 16.1941 14.6256 16.4113 14.2402 16.6871C14.2383 16.6871 14.2383 16.6871 14.2383 16.6871C13.6023 17.141 13.074 17.7417 12.6592 18.4835L9.72969 14.3703C9.44648 13.9747 8.99766 13.7538 8.53398 13.7538C7.84473 13.7538 7.5541 14.1632 7.24629 14.3859C5.42188 15.6814 2.93535 14.3511 2.93535 12.1667C2.93535 10.0038 5.3291 8.69643 7.14648 9.87338Z" fill="black"/>
</svg>
