<svg width="100" height="100" viewBox="0 0 100 100" fill="none" xmlns="http://www.w3.org/2000/svg">
<g clip-path="url(#clip0_46_852)">
<path d="M24.6094 25.5859V12.207H75.3906V25.5859C75.3906 34.4336 70.8789 42.207 64.0234 46.7578C61.6992 48.3008 61.6992 51.7188 64.0234 53.2422C70.8789 57.793 75.3906 65.5664 75.3906 74.4141V87.793H24.6094V74.4141C24.6094 65.5664 29.1211 57.793 35.9766 53.2422C38.3008 51.6992 38.3008 48.2812 35.9766 46.7578C29.1211 42.207 24.6094 34.4336 24.6094 25.5859Z" fill="#D8F1F4"/>
<path d="M50 30.7618H68.8281C69.2188 29.336 69.4141 28.0469 69.4922 27.0508C69.5898 25.8985 68.6719 24.9024 67.5 24.9219C59.0625 25.1172 54.5312 26.4844 49.9805 27.8321V30.7618H50Z" fill="#FABD65"/>
<path d="M64.0234 53.2422C61.875 51.8164 61.7187 48.7891 63.5352 47.1289C59.6094 49.6094 54.9805 51.0352 50 51.0352C45.0195 51.0352 40.3711 49.6094 36.4648 47.1289C38.2812 48.7891 38.125 51.8164 35.9766 53.2422C29.1211 57.793 24.6094 65.5664 24.6094 74.4141V87.793H75.3906V74.4141C75.3906 65.5664 70.8789 57.793 64.0234 53.2422Z" fill="#BDEAF0"/>
<path d="M68.8279 30.7618C50.6834 30.625 49.8045 25.3125 32.5193 24.9219C31.3475 24.9024 30.4295 25.879 30.5271 27.0508C30.8787 30.879 32.6951 38.8672 41.4451 43.1446C43.0857 43.9454 44.4725 45.1954 45.3514 46.8165C46.0936 48.2032 46.5037 49.7852 46.5037 51.4063V75.2149H53.4959V51.4063C53.4959 49.7657 53.9061 48.1836 54.6678 46.7774C55.5271 45.1758 56.9139 43.9258 58.5545 43.1446C63.535 40.7032 67.3436 36.211 68.8279 30.7618Z" fill="#FACA81"/>
<path d="M46.5039 75.2148H53.4961V51.4063C53.4961 51.2109 53.4961 50.9961 53.5156 50.8008H53.4961C53.4961 52.7344 51.9336 54.3164 49.9805 54.3164C48.0469 54.3164 46.4648 52.7539 46.4648 50.8008C46.4844 50.9961 46.4844 51.2109 46.4844 51.4063L46.5039 75.2148Z" fill="#FABD65"/>
<path d="M50 63.3789C37.3047 63.3789 37.3047 82.9102 24.6094 82.9102V89.7461H75.3906V82.9102C62.6953 82.9102 62.6953 63.3789 50 63.3789Z" fill="#FACA81"/>
<path d="M61.0156 82.9102C50.7422 82.9102 45.3516 69.8242 53.4961 63.9453C52.4414 63.5742 51.2695 63.3789 49.9805 63.3789C37.2852 63.3789 37.2852 82.9102 24.5898 82.9102V89.7461H60.9961V82.9102H61.0156Z" fill="#FABD65"/>
<path d="M75.3906 17.0898H24.6094C22.4609 17.0898 20.7031 15.332 20.7031 13.1836V7.32422H79.2969V13.1836C79.2969 15.332 77.5391 17.0898 75.3906 17.0898Z" fill="#DD9574"/>
<path d="M32.4219 13.1836V7.32422H20.7031V13.1836C20.7031 15.332 22.4609 17.0898 24.6094 17.0898H36.3281C34.1797 17.0898 32.4219 15.332 32.4219 13.1836Z" fill="#D88358"/>
<path d="M24.6094 82.9102H75.3906C77.5391 82.9102 79.2969 84.668 79.2969 86.8164V92.6758H20.7031V86.8164C20.7031 84.668 22.4609 82.9102 24.6094 82.9102Z" fill="#DD9574"/>
<path d="M32.4219 86.8164V92.6758H20.7031V86.8164C20.7031 84.668 22.4609 82.9102 24.6094 82.9102H36.3281C34.1797 82.9102 32.4219 84.668 32.4219 86.8164Z" fill="#D88358"/>
<path d="M83.2031 9.27734H16.7969C14.6484 9.27734 12.8906 7.51953 12.8906 5.37109C12.8906 3.22266 14.6484 1.46484 16.7969 1.46484H83.2031C85.3516 1.46484 87.1094 3.22266 87.1094 5.37109C87.1094 7.51953 85.3516 9.27734 83.2031 9.27734Z" fill="#E4A988"/>
<path d="M28.5156 5.37109C28.5156 3.22266 30.2734 1.46484 32.4219 1.46484H16.7969C14.6484 1.46484 12.8906 3.22266 12.8906 5.37109C12.8906 7.51953 14.6484 9.27734 16.7969 9.27734H32.4219C30.2734 9.27734 28.5156 7.51953 28.5156 5.37109Z" fill="#DD9574"/>
<path d="M16.7969 90.7227H83.2031C85.3516 90.7227 87.1094 92.4805 87.1094 94.6289C87.1094 96.7773 85.3516 98.5352 83.2031 98.5352H16.7969C14.6484 98.5352 12.8906 96.7773 12.8906 94.6289C12.8906 92.4805 14.6484 90.7227 16.7969 90.7227Z" fill="#E4A988"/>
<path d="M28.5156 94.6289C28.5156 96.7773 30.2734 98.5352 32.4219 98.5352H16.7969C14.6484 98.5352 12.8906 96.7773 12.8906 94.6289C12.8906 92.4805 14.6484 90.7227 16.7969 90.7227H32.4219C30.2734 90.7227 28.5156 92.4805 28.5156 94.6289Z" fill="#DD9574"/>
<path d="M83.2031 89.2578H80.7617V86.8164C80.7617 84.3555 79.1016 82.2852 76.8555 81.6406V74.4141C76.8555 65.3906 72.3633 57.0117 64.8242 52.0312C64.1406 51.582 63.75 50.8398 63.75 50C63.75 49.1797 64.1406 48.4375 64.8242 47.9688C66.3477 46.9531 67.7539 45.8008 69.043 44.5117C69.6094 43.9453 69.6094 43.0078 69.043 42.4414C68.4766 41.875 67.5391 41.875 66.9727 42.4414C65.8203 43.5938 64.5703 44.6289 63.2031 45.5273C63.0078 45.6641 62.832 45.8008 62.6562 45.957C61.3086 46.7969 59.8633 47.5195 58.3594 48.0664C57.5977 48.3398 57.207 49.1992 57.5 49.9609C57.7148 50.5469 58.2812 50.918 58.8672 50.918C59.043 50.918 59.2188 50.8789 59.375 50.8203C59.8633 50.6445 60.332 50.4492 60.8203 50.2344C60.8984 51.9531 61.7773 53.5156 63.2031 54.4727C69.9023 58.9258 73.9062 66.3867 73.9062 74.4141V81.3281C69.2969 80.625 66.6602 76.582 63.9063 72.3438C61.5625 68.75 58.9844 64.7852 54.9414 62.9492V51.4063C54.9414 50.0391 55.2734 48.6719 55.9375 47.4805C56.6211 46.2109 57.7539 45.1562 59.1797 44.4531C64.6094 41.7969 68.6328 36.9531 70.2344 31.1328C70.2344 31.1133 70.2344 31.1133 70.2344 31.0938C70.5859 29.8047 70.8203 28.4766 70.9375 27.168C71.0352 26.2109 70.7031 25.2344 70.0391 24.5312C69.375 23.8281 68.4375 23.418 67.4609 23.4375C59.1016 23.6328 54.4336 24.9609 50 26.2891C45.5859 24.9609 40.8984 23.6328 32.5391 23.4375C31.5625 23.418 30.625 23.8086 29.9609 24.5312C29.2969 25.2344 28.9648 26.2109 29.0625 27.168C29.2969 29.7266 30.0977 33.5742 32.5195 37.2656C32.9688 37.9492 33.8672 38.125 34.5508 37.6758C35.2344 37.2266 35.4102 36.3281 34.9609 35.6445C32.8711 32.4414 32.168 29.1211 31.9727 26.875C31.9531 26.6992 32.0508 26.5625 32.1094 26.5039C32.168 26.4453 32.2852 26.3477 32.4805 26.3477C40.7031 26.543 45 27.832 49.5703 29.1992C54.0039 30.5273 58.5742 31.8945 66.8164 32.1484C65.1758 36.3281 61.9922 39.7852 57.9102 41.7969C55.918 42.7734 54.3555 44.2383 53.3789 46.0547C52.5 47.6758 52.0508 49.5117 52.0508 51.3672V62.0312C51.4062 61.9336 50.7227 61.875 50.0195 61.875C49.2969 61.875 48.6328 61.9336 47.9883 62.0312V51.3672C47.9883 49.5312 47.5391 47.6953 46.6602 46.0742C45.6836 44.2383 44.1016 42.7539 42.1094 41.7773C40.8398 41.1523 39.6875 40.4297 38.6328 39.6094C38.0078 39.1016 37.0703 39.2188 36.582 39.8438C36.0742 40.4688 36.1914 41.4062 36.8164 41.8945C38.0273 42.8516 39.375 43.6914 40.8203 44.3945C42.2656 45.0977 43.3789 46.1523 44.0625 47.4219C44.707 48.6133 45.0391 49.9609 45.0391 51.3281V62.8711C42.5586 63.9844 40.8203 65.7812 39.5898 67.2852C39.082 67.9102 39.1602 68.8281 39.7852 69.3555C40.4102 69.8633 41.3281 69.7852 41.8555 69.1602C44.3555 66.1328 46.875 64.7852 50 64.7852C55.5469 64.7852 58.418 69.1992 61.4648 73.8867C63.1836 76.5234 65.0195 79.3555 67.4609 81.3867H32.5391C34.9805 79.3359 36.8164 76.5234 38.5352 73.8867C38.9844 73.2031 38.7891 72.3047 38.1055 71.8555C37.4219 71.4062 36.5234 71.6016 36.0742 72.2852C33.3203 76.543 30.6836 80.5664 26.0742 81.2695V74.4141C26.0742 66.3672 30.0781 58.9258 36.7773 54.4727C38.2031 53.5156 39.082 51.9531 39.1602 50.2344C39.6289 50.4492 40.1172 50.6445 40.6055 50.8203C40.7812 50.8789 40.957 50.918 41.1133 50.918C41.6992 50.918 42.2656 50.5469 42.4805 49.9609C42.7539 49.1992 42.3828 48.3594 41.6211 48.0664C40.1367 47.5 38.6914 46.7969 37.3242 45.957C37.1484 45.8008 36.9727 45.6641 36.7773 45.5273C30.0781 41.0742 26.0742 33.6133 26.0742 25.5859V18.5547H73.9258V25.5859C73.9258 28.125 73.5352 30.625 72.7539 33.0273C72.5 33.7891 72.9297 34.6289 73.6914 34.8828C73.8477 34.9414 74.0039 34.9609 74.1406 34.9609C74.7656 34.9609 75.332 34.5703 75.5273 33.9453C76.4062 31.25 76.8555 28.457 76.8555 25.5859V18.3594C79.1016 17.7148 80.7617 15.6445 80.7617 13.1836V10.7422H83.2031C86.1719 10.7422 88.5742 8.33984 88.5742 5.37109C88.5742 2.40234 86.1719 0 83.2031 0H16.7969C13.8281 0 11.4258 2.40234 11.4258 5.37109C11.4258 8.33984 13.8281 10.7422 16.7969 10.7422H19.2383V13.1836C19.2383 15.6445 20.8984 17.7148 23.1445 18.3594V25.5859C23.1445 34.6094 27.6367 42.9883 35.1758 47.9688C35.8594 48.418 36.25 49.1602 36.25 50C36.25 50.8203 35.8594 51.5625 35.1758 52.0312C27.6563 57.0312 23.1445 65.3906 23.1445 74.4141V81.6406C20.8984 82.2852 19.2383 84.3555 19.2383 86.8164V89.2578H16.7969C13.8281 89.2578 11.4258 91.6602 11.4258 94.6289C11.4258 97.5977 13.8281 100 16.7969 100H83.2031C86.1719 100 88.5742 97.5977 88.5742 94.6289C88.5742 91.6602 86.1719 89.2578 83.2031 89.2578ZM55.4883 27.832C58.6328 27.0703 62.2852 26.5039 67.5586 26.3867C67.7539 26.3867 67.8711 26.4844 67.9297 26.543C67.9883 26.6016 68.0664 26.7188 68.0664 26.9141C67.9883 27.6953 67.8711 28.4961 67.6953 29.2773C62.3633 29.1602 58.6523 28.5938 55.4883 27.832ZM14.3555 5.37109C14.3555 4.02344 15.4492 2.92969 16.7969 2.92969H83.2031C84.5508 2.92969 85.6445 4.02344 85.6445 5.37109C85.6445 6.71875 84.5508 7.8125 83.2031 7.8125H16.7969C15.4492 7.8125 14.3555 6.71875 14.3555 5.37109ZM22.168 13.1836V10.7422H77.832V13.1836C77.832 14.5312 76.7383 15.625 75.3906 15.625H24.6094C23.2617 15.625 22.168 14.5312 22.168 13.1836ZM83.2031 97.0703H16.7969C15.4492 97.0703 14.3555 95.9766 14.3555 94.6289C14.3555 93.2812 15.4492 92.1875 16.7969 92.1875H57.5195C58.3203 92.1875 58.9844 91.5234 58.9844 90.7227C58.9844 89.9219 58.3203 89.2578 57.5195 89.2578H22.168V86.8164C22.168 85.4688 23.2617 84.375 24.6094 84.375H75.3906C76.7383 84.375 77.832 85.4688 77.832 86.8164V89.2578H69.2383C68.4375 89.2578 67.7734 89.9219 67.7734 90.7227C67.7734 91.5234 68.4375 92.1875 69.2383 92.1875H83.2031C84.5508 92.1875 85.6445 93.2812 85.6445 94.6289C85.6445 95.9766 84.5508 97.0703 83.2031 97.0703Z" fill="black"/>
<path d="M41.3477 35.2148C42.1567 35.2148 42.8125 34.559 42.8125 33.75C42.8125 32.941 42.1567 32.2852 41.3477 32.2852C40.5386 32.2852 39.8828 32.941 39.8828 33.75C39.8828 34.559 40.5386 35.2148 41.3477 35.2148Z" fill="black"/>
<path d="M46.9336 39.8633C47.7426 39.8633 48.3984 39.2074 48.3984 38.3984C48.3984 37.5894 47.7426 36.9336 46.9336 36.9336C46.1246 36.9336 45.4688 37.5894 45.4688 38.3984C45.4688 39.2074 46.1246 39.8633 46.9336 39.8633Z" fill="black"/>
<path d="M55.4102 73.1445C56.2192 73.1445 56.875 72.4887 56.875 71.6797C56.875 70.8707 56.2192 70.2148 55.4102 70.2148C54.6011 70.2148 53.9453 70.8707 53.9453 71.6797C53.9453 72.4887 54.6011 73.1445 55.4102 73.1445Z" fill="black"/>
<path d="M45.4688 77.5391C46.2778 77.5391 46.9336 76.8832 46.9336 76.0742C46.9336 75.2652 46.2778 74.6094 45.4688 74.6094C44.6597 74.6094 44.0039 75.2652 44.0039 76.0742C44.0039 76.8832 44.6597 77.5391 45.4688 77.5391Z" fill="black"/>
<path d="M77.6563 58.6718L79.6875 59.2187C79.8242 59.2578 79.9414 59.2773 80.0586 59.2773C80.7031 59.2773 81.2891 58.8476 81.4649 58.1835C81.6797 57.4023 81.211 56.6015 80.4297 56.3867L78.3985 55.8398C77.6172 55.6249 76.8164 56.0937 76.6016 56.8749C76.3867 57.6562 76.875 58.457 77.6563 58.6718Z" fill="black"/>
<path d="M84.668 50C84.668 49.1992 84.0039 48.5352 83.2031 48.5352H79.0039C78.2031 48.5352 77.5391 49.1992 77.5391 50C77.5391 50.8008 78.2031 51.4648 79.0039 51.4648H83.2031C84.0039 51.4648 84.668 50.8008 84.668 50Z" fill="black"/>
<path d="M78.0468 44.1992C78.164 44.1992 78.3007 44.1796 78.4179 44.1406L80.4492 43.5937C81.2304 43.3788 81.6992 42.5781 81.4843 41.7968C81.2695 41.0156 80.4687 40.5468 79.6874 40.7617L77.6562 41.3085C76.8749 41.5234 76.4062 42.3242 76.621 43.1054C76.7968 43.7695 77.4023 44.1992 78.0468 44.1992Z" fill="black"/>
<path d="M21.582 55.8397L19.5507 56.3866C18.7695 56.6015 18.3007 57.4022 18.5156 58.1835C18.6913 58.8475 19.2773 59.2772 19.9218 59.2772C20.039 59.2772 20.1757 59.2577 20.2929 59.2186L22.3242 58.6718C23.1054 58.4569 23.5742 57.6561 23.3593 56.8749C23.164 56.0936 22.3632 55.6444 21.582 55.8397Z" fill="black"/>
<path d="M15.332 50C15.332 50.8008 15.9961 51.4648 16.7969 51.4648H20.9961C21.7969 51.4648 22.4609 50.8008 22.4609 50C22.4609 49.1992 21.7969 48.5352 20.9961 48.5352H16.7969C15.9961 48.5352 15.332 49.1992 15.332 50Z" fill="black"/>
<path d="M22.3437 41.3281L20.3124 40.7812C19.5312 40.5663 18.7304 41.0351 18.5156 41.8163C18.3007 42.5976 18.7695 43.3984 19.5507 43.6132L21.582 44.1601C21.7187 44.1992 21.8359 44.2187 21.9531 44.2187C22.5976 44.2187 23.1835 43.789 23.3593 43.1249C23.5937 42.3437 23.1249 41.5429 22.3437 41.3281Z" fill="black"/>
<path d="M63.3789 92.1875C64.1879 92.1875 64.8438 91.5317 64.8438 90.7227C64.8438 89.9136 64.1879 89.2578 63.3789 89.2578C62.5699 89.2578 61.9141 89.9136 61.9141 90.7227C61.9141 91.5317 62.5699 92.1875 63.3789 92.1875Z" fill="black"/>
<path d="M71.6797 40.293C72.4887 40.293 73.1445 39.6371 73.1445 38.8281C73.1445 38.0191 72.4887 37.3633 71.6797 37.3633C70.8707 37.3633 70.2148 38.0191 70.2148 38.8281C70.2148 39.6371 70.8707 40.293 71.6797 40.293Z" fill="black"/>
</g>
<defs>
<clipPath id="clip0_46_852">
<rect width="100" height="100" fill="white"/>
</clipPath>
</defs>
</svg>
