<svg width="20" height="20" viewBox="0 0 20 20" fill="none" xmlns="http://www.w3.org/2000/svg">
<g clip-path="url(#clip0_46_191)">
<path d="M14.4583 0H5.54178C4.79892 0 4.19092 0.607429 4.19092 1.35086V18.6486C4.19092 19.392 4.79892 20 5.54178 20H14.4583C15.2012 20 15.8092 19.3931 15.8092 18.6491V1.35086C15.8092 0.607429 15.2012 0 14.4583 0ZM8.57378 0.973714H11.4263C11.5166 0.973714 11.5898 1.04686 11.5898 1.13771C11.5898 1.228 11.5166 1.30114 11.4263 1.30114H8.57378C8.48349 1.30114 8.41035 1.228 8.41035 1.13771C8.41035 1.04686 8.48349 0.973714 8.57378 0.973714ZM10.0001 19.3246C9.62692 19.3246 9.32463 19.0223 9.32463 18.6486C9.32463 18.2749 9.62692 17.9731 10.0001 17.9731C10.3732 17.9731 10.6755 18.2749 10.6755 18.6486C10.6755 19.0223 10.3732 19.3246 10.0001 19.3246ZM14.8692 17.5H5.13092V2.14229H14.8692V17.5Z" fill="#212121"/>
</g>
<defs>
<clipPath id="clip0_46_191">
<rect width="20" height="20" fill="white"/>
</clipPath>
</defs>
</svg>
