<svg width="20" height="20" viewBox="0 0 20 20" fill="none" xmlns="http://www.w3.org/2000/svg">
<g clip-path="url(#clip0_46_204)">
<path d="M1.24976 1.36108C-0.321907 2.99358 -0.000240855 4.72774 -0.000240855 9.99608C-0.000240855 14.3711 -0.763574 18.7569 3.23143 19.7894C4.47893 20.1102 15.5323 20.1102 16.7781 19.7877C18.4414 19.3586 19.7948 18.0094 19.9798 15.6569C20.0056 15.3286 20.0056 4.66941 19.9789 4.33441C19.7823 1.82858 18.2398 0.384409 16.2073 0.0919088C15.7414 0.0244088 15.6481 0.00440878 13.2581 0.000242114C4.78059 0.00440878 2.92226 -0.373091 1.24976 1.36108Z" fill="url(#paint0_linear_46_204)"/>
<path d="M9.99834 2.61601C6.97251 2.61601 4.09917 2.34685 3.00167 5.16351C2.54834 6.32685 2.61417 7.83768 2.61417 10.001C2.61417 11.8993 2.55334 13.6835 3.00167 14.8377C4.09667 17.656 6.99334 17.386 9.99667 17.386C12.8942 17.386 15.8817 17.6877 16.9925 14.8377C17.4467 13.6627 17.38 12.1743 17.38 10.001C17.38 7.11601 17.5392 5.25351 16.14 3.85518C14.7233 2.43851 12.8075 2.61601 9.99501 2.61601H9.99834ZM9.33667 3.94685C15.6483 3.93685 16.4517 3.23518 16.0083 12.9827C15.8508 16.4302 13.2258 16.0518 9.99917 16.0518C4.11584 16.0518 3.94667 15.8835 3.94667 9.99768C3.94667 4.04351 4.41334 3.95018 9.33667 3.94518V3.94685ZM13.94 5.17268C13.4508 5.17268 13.0542 5.56935 13.0542 6.05851C13.0542 6.54768 13.4508 6.94435 13.94 6.94435C14.4292 6.94435 14.8258 6.54768 14.8258 6.05851C14.8258 5.56935 14.4292 5.17268 13.94 5.17268ZM9.99834 6.20851C7.90417 6.20851 6.20667 7.90685 6.20667 10.001C6.20667 12.0952 7.90417 13.7927 9.99834 13.7927C12.0925 13.7927 13.7892 12.0952 13.7892 10.001C13.7892 7.90685 12.0925 6.20851 9.99834 6.20851ZM9.99834 7.53935C13.2525 7.53935 13.2567 12.4627 9.99834 12.4627C6.74501 12.4627 6.74001 7.53935 9.99834 7.53935Z" fill="white"/>
</g>
<defs>
<linearGradient id="paint0_linear_46_204" x1="1.28811" y1="18.7228" x2="19.876" y2="2.63522" gradientUnits="userSpaceOnUse">
<stop stop-color="#FFDD55"/>
<stop offset="0.5" stop-color="#FF543E"/>
<stop offset="1" stop-color="#C837AB"/>
</linearGradient>
<clipPath id="clip0_46_204">
<rect width="20" height="20" fill="white"/>
</clipPath>
</defs>
</svg>
