<svg width="100" height="100" viewBox="0 0 100 100" fill="none" xmlns="http://www.w3.org/2000/svg">
<path d="M56.3166 9.2686V12.4478C55.7562 21.9498 48.0208 22.0311 48.0208 22.0311C45.9155 21.91 43.9213 21.0465 42.3926 19.594C40.8638 18.1415 39.8994 16.1941 39.6708 14.0978L39.5479 13.0894L39.2958 11.0207L38.9312 8.03943C38.8562 7.3676 38.9143 6.68758 39.1021 6.03821C39.29 5.38885 39.604 4.78286 40.0262 4.25488C40.4483 3.7269 40.9704 3.28727 41.5625 2.96111C42.1546 2.63495 42.8052 2.42866 43.477 2.35401L50.2833 1.5936C51.64 1.44266 53.0011 1.83676 54.0673 2.68924C55.1335 3.54171 55.8174 4.78275 55.9687 6.13943L56.202 8.23735L56.3166 9.2686Z" fill="#FED9B9"/>
<path d="M63.5894 21.2793H92.1269V49.746H63.5894V21.2793Z" fill="#FCBD55"/>
<path d="M78.7853 47.2314H92.1186V21.2793H67.4395V35.8835C67.4395 38.8928 68.6347 41.7788 70.7624 43.9069C72.8901 46.035 75.776 47.2308 78.7853 47.2314Z" fill="#FCCA6E"/>
<path d="M64.8123 44.2521H64.7789C64.3536 44.2521 63.9385 44.122 63.5894 43.8792V45.6979C63.9727 45.8269 64.3744 45.893 64.7789 45.8937H64.8748L72.8164 45.5229C72.0999 45.0806 71.4347 44.56 70.8331 43.9708L64.8123 44.2521Z" fill="#FCAC44"/>
<path d="M83.0022 43.4438H82.9168C82.3147 43.4438 75.871 43.7376 70.8335 43.9709C71.4352 44.5594 72.1004 45.0793 72.8168 45.5209C77.5481 45.3022 82.1127 45.1043 82.8564 45.0855L85.4668 45.5584L92.1335 45.5001V43.8772L85.6127 43.9168L83.0022 43.4438Z" fill="#FCBD55"/>
<path d="M54.8563 64.1041L53.5021 67.3749C52.5681 66.9872 51.6689 66.5203 50.8146 65.9791C48.2424 64.2498 46.0049 62.0687 44.2104 59.5416L45.4813 53.7708C45.7938 56.0416 47.9813 59.6874 52.7521 63.0208C53.4215 63.441 54.1254 63.8034 54.8563 64.1041Z" fill="#40A6C2"/>
<path d="M74.1436 21.2793H81.4873V28.623H74.1436V21.2793Z" fill="#FF953F"/>
<path d="M78.4502 27.4835H81.4877V21.2793H75.9106V24.946C75.9106 25.2794 75.9764 25.6095 76.104 25.9175C76.2317 26.2255 76.4187 26.5053 76.6546 26.741C76.8904 26.9766 77.1704 27.1635 77.4785 27.2909C77.7866 27.4183 78.1168 27.4837 78.4502 27.4835Z" fill="#F99E4D"/>
<path d="M85.3978 91.8123C85.3449 91.5043 85.2303 91.2102 85.0609 90.9476C84.8915 90.685 84.6708 90.4594 84.412 90.2843C84.1532 90.1091 83.8617 89.9881 83.5549 89.9285C83.2482 89.8689 82.9325 89.8719 82.627 89.9373L81.4811 90.1456L77.002 64.3331C76.8991 63.7585 76.6676 63.2145 76.3249 62.7419C75.9822 62.2693 75.5371 61.8803 75.0228 61.604L60.4603 53.7706L59.6478 41.4581L56.8145 38.979L62.127 33.2706C59.1686 29.7498 54.7311 25.4373 54.0228 24.729C52.4955 23.2972 50.5711 22.3604 48.502 22.0415C45.3145 21.8331 41.752 23.7915 41.752 27.2706C41.752 29.0415 42.6478 35.354 43.5645 41.3956C43.5645 41.3956 45.377 52.8956 45.4811 53.7706L41.3978 72.2498C41.311 72.7226 41.051 73.146 40.6686 73.4373L25.4791 85.4165L25.4603 85.4311L21.9603 87.7852C21.7551 87.9768 21.6255 88.2357 21.5949 88.5147C21.5643 88.7938 21.6348 89.0746 21.7936 89.3061L28.3353 98.4311L30.7936 96.7852C31.0472 96.6031 31.2617 96.372 31.4246 96.1057C31.5874 95.8393 31.6953 95.5431 31.7419 95.2344C31.7885 94.9257 31.7728 94.6108 31.6959 94.3082C31.6189 94.0057 31.4821 93.7216 31.2936 93.4727L30.6895 92.6602L48.7936 78.1811C49.1029 77.9406 49.3347 77.6146 49.4603 77.2435L54.8561 64.0977C58.9661 65.5937 63.1875 66.764 67.4811 67.5977C67.7125 67.6391 67.9252 67.7517 68.0895 67.9198C68.2538 68.0878 68.3616 68.303 68.3978 68.5352L72.7728 92.0331L73.4978 95.9311C73.5825 96.1959 73.7596 96.4215 73.9966 96.5667C74.2337 96.712 74.515 96.7674 74.7895 96.7227L85.8311 94.7227L85.3978 91.8123Z" fill="#F99E4D"/>
<path d="M50.2836 1.59353L43.4773 2.35186C42.1206 2.50315 40.8796 3.18709 40.0271 4.25327C39.1747 5.31945 38.7805 6.68056 38.9315 8.03728L39.419 12.0352L56.3169 9.26853L55.969 6.14353C55.8946 5.4714 55.6885 4.82052 55.3625 4.22806C55.0364 3.63561 54.5969 3.11319 54.0689 2.69066C53.5409 2.26812 52.9349 1.95375 52.2854 1.7655C51.6359 1.57725 50.9557 1.51882 50.2836 1.59353Z" fill="#EB7729"/>
<path d="M25.4603 85.4376L21.9603 87.7917C21.7551 87.9833 21.6255 88.2422 21.5949 88.5213C21.5643 88.8003 21.6348 89.0811 21.7936 89.3126L28.3353 98.4376L30.7936 96.7917C31.0472 96.6096 31.2617 96.3785 31.4246 96.1122C31.5874 95.8458 31.6953 95.5496 31.7419 95.2409C31.7885 94.9322 31.7729 94.6173 31.6959 94.3148C31.6189 94.0122 31.4821 93.7281 31.2936 93.4792L30.6895 92.6667L25.4791 85.4167L25.4603 85.4376Z" fill="#323648"/>
<path d="M45.4811 53.7708L41.3978 72.2499C41.311 72.7227 41.051 73.1461 40.6686 73.4374L25.479 85.4166L30.6873 92.6603L48.7915 78.1812C49.1007 77.9407 49.3326 77.6147 49.4582 77.2437L54.854 64.0978C54.1231 63.7971 53.4192 63.4347 52.7498 63.0145C47.9811 59.6874 45.7936 56.0416 45.4811 53.7708Z" fill="#EB7729"/>
<path d="M47.9544 61.5271C47.8643 61.4311 47.7497 61.3615 47.623 61.3259C47.4963 61.2902 47.3622 61.2898 47.2353 61.3248C47.1083 61.3597 46.9933 61.4287 46.9027 61.5242C46.8121 61.6197 46.7493 61.7381 46.7211 61.8667L44.2815 72.9084C44.1947 73.3812 43.9347 73.8046 43.5523 74.0959L31.5981 83.5292C30.7262 84.2152 30.1527 85.2113 29.9975 86.3098C29.8422 87.4083 30.1171 88.5243 30.7648 89.4251L32.2231 91.4438L48.7961 78.1896C49.1053 77.9492 49.3371 77.6232 49.4627 77.2521L54.0148 66.1626C53.4468 65.8863 52.8952 65.5774 52.3627 65.2376C50.7811 64.1405 49.3052 62.8984 47.9544 61.5271Z" fill="#FF953F"/>
<path d="M81.2127 88.596L77.0023 64.3335C76.8994 63.7589 76.668 63.2149 76.3252 62.7423C75.9825 62.2697 75.5374 61.8807 75.0231 61.6043L60.4606 53.771L59.6398 41.3356L56.9773 39.0168L61.9627 33.6398L61.8752 33.5418L62.1335 33.2648C59.1752 29.7439 54.7377 25.4314 54.0294 24.7231C52.502 23.2913 50.5776 22.3545 48.5085 22.0356C47.2585 21.9573 46.009 22.1951 44.8752 22.7273C44.44 23.4503 44.2123 24.2792 44.2169 25.1231C44.2169 26.8939 45.1127 33.2064 46.0294 39.2481C46.0294 39.2481 47.8419 50.7481 47.946 51.6231C48.2585 53.8939 50.446 57.5398 55.2169 60.8731C55.8862 61.2933 56.5901 61.6557 57.321 61.9564C61.431 63.4524 65.6524 64.6227 69.946 65.4564C70.1774 65.4979 70.3901 65.6104 70.5544 65.7785C70.7187 65.9466 70.8265 66.1617 70.8627 66.3939L74.3419 85.0648C74.4586 85.6916 74.7001 86.2887 75.0518 86.8205C75.4036 87.3524 75.8585 87.8082 76.3897 88.161C76.9208 88.5138 77.5174 88.7564 78.144 88.8745C78.7706 88.9925 79.4146 88.9835 80.0377 88.8481L81.2127 88.596Z" fill="#FCAC44"/>
<path d="M59.648 41.4583L52.2563 35V35.2083C52.2565 35.5219 52.3239 35.8319 52.454 36.1172C52.5841 36.4026 52.7739 36.6567 53.0105 36.8625L59.7293 42.6875L59.648 41.4583Z" fill="#F99E4D"/>
<path d="M85.3977 91.8126C85.3448 91.5046 85.2302 91.2105 85.0608 90.9479C84.8914 90.6854 84.6707 90.4597 84.4119 90.2846C84.1531 90.1095 83.8616 89.9885 83.5548 89.9288C83.2481 89.8692 82.9324 89.8722 82.6269 89.9376L81.481 90.146L72.7769 92.0397L73.5019 95.9376C73.5866 96.2024 73.7636 96.428 74.0007 96.5733C74.2377 96.7186 74.5191 96.774 74.7935 96.7293L85.8352 94.7293L85.3977 91.8126Z" fill="#323648"/>
<path d="M63.7501 9.10436L56.3105 10.3294L39.548 13.0877L39.2959 11.0189L56.2021 8.23769L63.4167 7.04811C63.6894 7.00308 63.9688 7.06821 64.1935 7.22918C64.4181 7.39015 64.5696 7.63377 64.6147 7.90644C64.6597 8.17912 64.5946 8.45852 64.4336 8.68317C64.2726 8.90782 64.029 9.05933 63.7563 9.10436H63.7501Z" fill="#EB7729"/>
<path d="M32.2061 59.6125H23.5186C23.1042 59.6125 22.7067 59.4479 22.4137 59.1549C22.1207 58.8619 21.9561 58.4644 21.9561 58.05C21.9561 57.6356 22.1207 57.2382 22.4137 56.9452C22.7067 56.6522 23.1042 56.4875 23.5186 56.4875H32.2061C32.6205 56.4875 33.0179 56.6522 33.3109 56.9452C33.6039 57.2382 33.7686 57.6356 33.7686 58.05C33.7686 58.4644 33.6039 58.8619 33.3109 59.1549C33.0179 59.4479 32.6205 59.6125 32.2061 59.6125Z" fill="#585F76"/>
<path d="M28.5292 51.2898H7.875C7.4606 51.2898 7.06317 51.1252 6.77015 50.8322C6.47712 50.5391 6.3125 50.1417 6.3125 49.7273C6.3125 49.3129 6.47712 48.9155 6.77015 48.6224C7.06317 48.3294 7.4606 48.1648 7.875 48.1648H28.5292C28.9436 48.1648 29.341 48.3294 29.634 48.6224C29.927 48.9155 30.0917 49.3129 30.0917 49.7273C30.0917 50.1417 29.927 50.5391 29.634 50.8322C29.341 51.1252 28.9436 51.2898 28.5292 51.2898Z" fill="#585F76"/>
<path d="M47.4773 42.969H35.4731C35.0587 42.969 34.6613 42.8044 34.3683 42.5113C34.0753 42.2183 33.9106 41.8209 33.9106 41.4065C33.9106 40.9921 34.0753 40.5947 34.3683 40.3016C34.6613 40.0086 35.0587 39.844 35.4731 39.844H47.4773C47.8917 39.844 48.2891 40.0086 48.5822 40.3016C48.8752 40.5947 49.0398 40.9921 49.0398 41.4065C49.0398 41.8209 48.8752 42.2183 48.5822 42.5113C48.2891 42.8044 47.8917 42.969 47.4773 42.969Z" fill="#585F76"/>
<path d="M35.4728 34.646H18.3062C17.8918 34.646 17.4943 34.4814 17.2013 34.1883C16.9083 33.8953 16.7437 33.4979 16.7437 33.0835C16.7437 32.6691 16.9083 32.2717 17.2013 31.9786C17.4943 31.6856 17.8918 31.521 18.3062 31.521H35.4728C35.8872 31.521 36.2846 31.6856 36.5777 31.9786C36.8707 32.2717 37.0353 32.6691 37.0353 33.0835C37.0353 33.4979 36.8707 33.8953 36.5777 34.1883C36.2846 34.4814 35.8872 34.646 35.4728 34.646Z" fill="#585F76"/>
<path d="M86.4853 37.0311L84.129 38.4186L67.0207 37.8186C66.4361 37.7653 65.8875 37.513 65.4665 37.104L61.8749 33.5415L56.8145 38.9582L62.8395 44.3103C63.389 44.8036 64.1052 45.0702 64.8436 45.0561C64.8436 45.0561 82.0499 44.2436 82.9311 44.2478L85.5415 44.7207L92.1332 44.6644V36.8311L86.4853 37.0311Z" fill="#FED9B9"/>
</svg>
