<svg width="100" height="100" viewBox="0 0 100 100" fill="none" xmlns="http://www.w3.org/2000/svg">
<path d="M85.2342 32.1846H64.5859V69.6086H98.4165V52.7641L94.4709 39.1277C93.2816 35.0156 89.5151 32.1846 85.2342 32.1846Z" fill="#FF7058"/>
<path d="M93.4774 52.5914L89.9611 40.4361C89.3549 38.3467 87.4113 36.8843 85.2343 36.8843H69.2856V52.5914H93.4774Z" fill="#84DBFF"/>
<path d="M93.4816 52.585H69.2773V36.8779L93.4816 52.585Z" fill="#CDD6E0"/>
<path d="M93.4774 52.5914L89.9611 40.4361C89.3549 38.3467 87.4113 36.8843 85.2343 36.8843H69.2856L93.4774 52.5914Z" fill="#F2F2F2"/>
<path d="M6.24947 13.3965H58.3367C61.7864 13.3965 64.5862 16.1941 64.5862 19.646V69.6064H0V19.646C0 16.1943 2.79762 13.3965 6.24947 13.3965Z" fill="#FFD15C"/>
<path d="M42.33 13.4072V29.9203L39.9134 27.5039L37.3804 30.0371L34.8493 27.5039L32.3183 30.0371L29.783 27.5039L27.2187 30.0371L24.6896 27.5039L22.2441 29.9496V13.4072H42.33Z" fill="#F2F2F2"/>
<path d="M99.9999 69.6045V76.6664H0.00830078V69.6045H10.4449C12.8822 65.2299 17.5693 62.2717 22.9439 62.2717C28.2975 62.2717 32.9846 65.2299 35.4428 69.6045H69.0234C71.4607 65.2299 76.125 62.2717 81.4995 62.2717C86.874 62.2717 91.5403 65.2299 93.9985 69.6045H99.9999Z" fill="#334A5E"/>
<path d="M91.4797 76.6227C91.4797 82.1348 87.0113 86.6032 81.4993 86.6032C75.9872 86.6032 71.5229 82.1348 71.5229 76.6227C71.5229 71.1107 75.9892 66.6423 81.4993 66.6423C87.0134 66.6423 91.4797 71.1107 91.4797 76.6227Z" fill="#40596B"/>
<path d="M85.5114 76.6226C85.5114 78.837 83.7157 80.6306 81.5034 80.6306C79.2889 80.6306 77.4912 78.837 77.4912 76.6226C77.4912 74.4081 79.287 72.6145 81.5034 72.6145C83.7157 72.6126 85.5114 74.4083 85.5114 76.6226Z" fill="#ACB3BA"/>
<path d="M32.9159 76.6227C32.9159 82.1348 28.4454 86.6032 22.9355 86.6032C17.4235 86.6032 12.9551 82.1348 12.9551 76.6227C12.9551 71.1107 17.4235 66.6423 22.9355 66.6423C28.4454 66.6423 32.9159 71.1107 32.9159 76.6227Z" fill="#40596B"/>
<path d="M26.9439 76.6226C26.9439 78.837 25.1503 80.6306 22.9358 80.6306C20.7213 80.6306 18.9258 78.837 18.9258 76.6226C18.9258 74.4081 20.7215 72.6145 22.9358 72.6145C25.1501 72.6145 26.9439 74.4083 26.9439 76.6226Z" fill="#ACB3BA"/>
</svg>
