<svg width="100" height="100" viewBox="0 0 100 100" fill="none" xmlns="http://www.w3.org/2000/svg">
<g clip-path="url(#clip0_118_584)">
<path fill-rule="evenodd" clip-rule="evenodd" d="M85.9402 99.9999C85.4716 99.9999 85.0029 99.707 84.7686 99.2969L76.3913 84.8271C76.157 84.3585 76.157 83.8312 76.5085 83.3626L77.9145 81.4293C78.2074 81.0193 78.676 80.8435 79.2033 80.9021L85.5302 81.898C85.9402 81.9566 86.2917 82.1909 86.4675 82.5424L93.2044 94.2003C93.3802 94.4346 93.4973 94.7275 93.4973 95.0204C93.4973 95.782 92.9115 96.3678 92.2085 96.3678C92.15 96.3678 92.15 96.3678 92.15 96.3678C91.9742 96.3678 91.7985 96.3092 91.6227 96.2507L87.7563 94.4932L87.229 98.7697C87.1705 99.3555 86.7604 99.8242 86.1746 99.9413C86.116 99.9413 85.9988 99.9999 85.9402 99.9999Z" fill="#EF5350"/>
<path fill-rule="evenodd" clip-rule="evenodd" d="M62.8588 99.9999C62.8002 99.9999 62.6831 99.9413 62.6245 99.9413C62.0387 99.8242 61.6286 99.3555 61.57 98.7697L61.0428 94.4932L57.1763 96.2507C56.6491 96.485 56.0047 96.3678 55.6532 95.8992C55.2431 95.4891 55.1845 94.8447 55.4774 94.376L62.3902 82.4252C62.5659 82.0737 62.9174 81.8394 63.3275 81.7808L68.8342 80.9021C69.3614 80.8435 69.8301 81.0193 70.123 81.4293L71.9977 83.9484C72.2906 84.3585 72.2906 84.9443 72.0562 85.4129L64.0305 99.2969C63.7961 99.707 63.3275 99.9999 62.8588 99.9999Z" fill="#EF5350"/>
<path fill-rule="evenodd" clip-rule="evenodd" d="M61.6286 79.1447H11.5407C8.37725 79.1447 5.85822 76.6257 5.85822 73.5208V5.68248C5.85822 2.57762 8.37725 0 11.5407 0H69.7129C72.8178 0 75.3368 2.57762 75.3368 5.68248V51.4353C75.3368 51.7282 75.2783 52.0211 75.1025 52.2554L70.123 59.051C69.8301 59.4025 69.3614 59.6368 68.8342 59.5782L62.3316 58.5237L63.3275 65.0849C63.4446 65.5536 63.2103 66.0223 62.8002 66.3152L57.4692 70.2402L62.8002 74.1066C63.2103 74.3995 63.4446 74.9268 63.3275 75.3954L62.9174 78.0316C62.8588 78.676 62.273 79.1447 61.6286 79.1447Z" fill="#EBF0F3"/>
<path fill-rule="evenodd" clip-rule="evenodd" d="M65.5536 52.8408H15.6415C14.8799 52.8408 14.2941 52.255 14.2941 51.4934C14.2941 50.7904 14.8799 50.2046 15.6415 50.2046H65.5536C66.3152 50.2046 66.901 50.7904 66.901 51.4934C66.901 52.255 66.3152 52.8408 65.5536 52.8408Z" fill="#D5D6DB"/>
<path fill-rule="evenodd" clip-rule="evenodd" d="M55.7118 61.5112H15.6415C14.8799 61.5112 14.2941 60.9254 14.2941 60.1638C14.2941 59.4022 14.8799 58.8164 15.6415 58.8164H55.7118C56.4733 58.8164 57.0592 59.4022 57.0592 60.1638C57.0592 60.9254 56.4733 61.5112 55.7118 61.5112Z" fill="#D5D6DB"/>
<path fill-rule="evenodd" clip-rule="evenodd" d="M47.5688 70.123H15.6415C14.8799 70.123 14.2941 69.5372 14.2941 68.7756C14.2941 68.0726 14.8799 67.4868 15.6415 67.4868H47.5688C48.3304 67.4868 48.9162 68.0726 48.9162 68.7756C48.9162 69.5372 48.3304 70.123 47.5688 70.123Z" fill="#D5D6DB"/>
<path fill-rule="evenodd" clip-rule="evenodd" d="M64.0305 16.52H48.1547C47.4517 16.52 46.8658 15.9342 46.8658 15.1726C46.8658 14.4696 47.4517 13.8252 48.1547 13.8252H64.0305C64.7334 13.8252 65.3779 14.4696 65.3779 15.1726C65.3779 15.9342 64.7334 16.52 64.0305 16.52Z" fill="#D5D6DB"/>
<path fill-rule="evenodd" clip-rule="evenodd" d="M64.0305 23.8427H48.1547C47.4517 23.8427 46.8658 23.2569 46.8658 22.5539C46.8658 21.7924 47.4517 21.2065 48.1547 21.2065H64.0305C64.7334 21.2065 65.3779 21.7924 65.3779 22.5539C65.3779 23.2569 64.7334 23.8427 64.0305 23.8427Z" fill="#D5D6DB"/>
<path fill-rule="evenodd" clip-rule="evenodd" d="M64.0305 31.2241H48.1547C47.4517 31.2241 46.8658 30.6383 46.8658 29.8767C46.8658 29.1737 47.4517 28.5879 48.1547 28.5879H64.0305C64.7334 28.5879 65.3779 29.1737 65.3779 29.8767C65.3779 30.6383 64.7334 31.2241 64.0305 31.2241Z" fill="#D5D6DB"/>
<path fill-rule="evenodd" clip-rule="evenodd" d="M74.048 90.3339C73.5794 90.3339 73.2279 90.1582 72.935 89.8067L68.4827 83.6556L60.9256 84.8272C60.5155 84.8858 60.1054 84.7686 59.8125 84.4757C59.5196 84.1242 59.3439 83.7141 59.4025 83.3041L60.5741 75.8055L54.4815 71.2947C54.1301 71.0604 53.8957 70.6503 53.8957 70.2402C53.8957 69.8301 54.1301 69.4201 54.4815 69.1857L60.5741 64.6749L59.4025 57.1764C59.3439 56.7077 59.5196 56.2976 59.8125 56.0047C60.1054 55.7118 60.5155 55.5946 60.9256 55.6532L68.4827 56.8249L72.935 50.6737C73.2279 50.3222 73.5794 50.1465 74.048 50.1465C74.4581 50.1465 74.8682 50.3222 75.1025 50.6737L79.6134 56.8249L87.1119 55.6532C87.522 55.5946 87.932 55.7118 88.225 56.0047C88.5179 56.2976 88.6936 56.7077 88.635 57.1764L87.4634 64.6749L93.6145 69.1857C93.9074 69.4201 94.1418 69.8301 94.1418 70.2402C94.1418 70.6503 93.9074 71.0604 93.6145 71.2947L87.4634 75.8055L88.635 83.3041C88.6936 83.7141 88.5179 84.1242 88.225 84.4757C87.932 84.7686 87.522 84.8858 87.1119 84.8272L79.6134 83.6556L75.1025 89.8067C74.8682 90.1582 74.4581 90.3339 74.048 90.3339Z" fill="#FEC93E"/>
<path fill-rule="evenodd" clip-rule="evenodd" d="M74.048 80.9021C68.1312 80.9021 63.3275 76.0983 63.3275 70.2401C63.3275 64.3233 68.1312 59.5781 74.048 59.5781C79.9062 59.5781 84.71 64.3233 84.71 70.2401C84.71 76.0983 79.9062 80.9021 74.048 80.9021Z" fill="#FEB538"/>
<path fill-rule="evenodd" clip-rule="evenodd" d="M65.4364 38.6059H49.5606C48.8576 38.6059 48.2718 38.0201 48.2718 37.2585C48.2718 36.497 48.8576 35.9111 49.5606 35.9111H65.4364C66.1394 35.9111 66.7252 36.497 66.7252 37.2585C66.7252 38.0201 66.1394 38.6059 65.4364 38.6059Z" fill="#D5D6DB"/>
<path fill-rule="evenodd" clip-rule="evenodd" d="M25.0732 31.6346C24.956 31.6932 24.8389 31.6932 24.6631 31.6932C24.6045 31.6932 24.4874 31.6932 24.3702 31.6932C23.843 31.5174 24.2531 30.9316 24.4288 30.3458L25.3661 26.7137C25.5419 26.1864 25.3661 25.8349 25.8934 26.0107C26.1277 26.0693 26.362 26.1864 26.4792 26.3622L27.2407 25.1905L27.2993 25.1319L31.9273 23.1987L32.0445 23.1401L32.1031 23.2573L33.8606 26.1278C33.9191 26.0693 33.9777 26.0693 34.0363 26.0693C34.6221 25.8935 34.3878 26.0107 34.505 26.5379L35.5009 30.1114C35.618 30.6973 36.1453 31.5174 35.5594 31.6932C35.5009 31.6932 35.3837 31.6932 35.3251 31.6932L34.915 34.3879L34.8564 34.5051H34.7393L28.7053 35.5596H28.6467L28.5881 35.501L25.0732 31.6346Z" fill="#FFB08C"/>
<path fill-rule="evenodd" clip-rule="evenodd" d="M24.9561 28.354L25.3661 26.7137C25.5419 26.1864 25.3661 25.8349 25.8934 26.0107C26.1277 26.0693 26.362 26.1864 26.4792 26.3622L27.2408 25.1905L27.2993 25.1319L31.9273 23.1987L32.0445 23.1401L32.1031 23.2573L33.8606 26.1278C33.9191 26.0693 33.9777 26.0693 34.0363 26.0693C34.6221 25.8935 34.3878 26.0107 34.505 26.5379L35.0322 28.354C33.5091 29.3499 31.693 29.8771 29.877 29.8771C28.1195 29.8771 26.362 29.3499 24.9561 28.354Z" fill="#FF9E7E"/>
<path fill-rule="evenodd" clip-rule="evenodd" d="M23.6087 20.3282C23.14 20.6211 22.4956 20.5039 22.1441 19.9767C20.3866 17.1647 21.2654 12.6539 23.1986 10.3692C24.4288 8.84603 26.0691 8.31879 27.768 8.84603C31.2244 7.73297 34.3878 8.26021 36.4968 10.3106C38.7815 12.5953 39.3673 16.4032 38.0199 20.2696C37.9027 20.6797 37.4927 20.9726 37.024 20.9726C35.2665 20.9726 23.7844 20.211 23.6087 20.3282Z" fill="#8E674D"/>
<path fill-rule="evenodd" clip-rule="evenodd" d="M44.1125 44.171H15.8172C15.2314 44.171 14.7627 43.7023 14.7627 43.1165V36.8482C14.7627 32.8646 18.0433 29.584 22.0855 29.584H24.6631C24.8975 29.584 25.1318 29.6426 25.3661 29.8183L29.9355 33.4504L34.6221 29.8183C34.7979 29.6426 35.0322 29.584 35.2665 29.584H37.9027C41.9449 29.584 45.2255 32.8646 45.2255 36.8482V43.1165C45.2255 43.7023 44.6983 44.171 44.1125 44.171Z" fill="#5C9CEE"/>
<path fill-rule="evenodd" clip-rule="evenodd" d="M22.1441 44.1711H20.0351V38.8401C20.0351 38.2543 20.5038 37.7856 21.0896 37.7856C21.6754 37.7856 22.1441 38.2543 22.1441 38.8401V44.1711Z" fill="#4B7EC1"/>
<path fill-rule="evenodd" clip-rule="evenodd" d="M39.9531 44.1711H37.7856V38.8401C37.7856 38.2543 38.2542 37.7856 38.8401 37.7856C39.4259 37.7856 39.9531 38.2543 39.9531 38.8401V44.1711Z" fill="#4B7EC1"/>
<path fill-rule="evenodd" clip-rule="evenodd" d="M29.877 28.9399C26.0105 28.9399 22.0855 26.1865 22.0269 19.9182C22.0269 19.7425 21.1482 16.6962 25.8934 14.0014C26.3034 13.7671 26.7135 13.6499 27.1236 13.6499C28.2367 13.6499 28.9396 14.5286 29.584 15.2316C30.287 16.0518 31.693 15.0559 32.9818 15.0559C33.4505 15.0559 33.9777 14.9387 34.505 14.763C34.6807 14.7044 34.915 14.7044 35.0908 14.7044C37.2583 14.7044 37.9027 17.8678 38.0785 19.801C38.43 22.9059 37.1997 25.0149 36.1453 26.1865C34.5635 27.944 32.2788 28.9399 29.877 28.9399Z" fill="#FFC39C"/>
<path fill-rule="evenodd" clip-rule="evenodd" d="M74.048 62.9175C70.0058 62.9175 66.7252 66.1981 66.7252 70.2403C66.7252 74.2239 70.0058 77.5045 74.048 77.5045C78.0316 77.5045 81.3122 74.2239 81.3122 70.2403C81.3122 66.1981 78.0316 62.9175 74.048 62.9175Z" fill="#FEC93E"/>
</g>
<defs>
<clipPath id="clip0_118_584">
<rect width="100" height="100" fill="white"/>
</clipPath>
</defs>
</svg>
