<svg width="100" height="100" viewBox="0 0 100 100" fill="none" xmlns="http://www.w3.org/2000/svg">
<g clip-path="url(#clip0_118_504)">
<path d="M50 81.172C48.382 81.172 47.0703 79.8603 47.0703 78.2423V62.5522C47.0703 60.9343 48.382 59.6226 50 59.6226C51.618 59.6226 52.9297 60.9343 52.9297 62.5522V78.2423C52.9297 79.8603 51.618 81.172 50 81.172Z" fill="#FFB454"/>
<path d="M34.31 56.0679C25.7732 56.0679 18.8281 49.1228 18.8281 40.586V34.3101C18.8281 32.6921 20.1398 31.3804 21.7578 31.3804H34.31C35.9279 31.3804 37.2396 32.6921 37.2396 34.3101C37.2396 35.928 35.9279 37.2397 34.31 37.2397H24.6875V40.586C24.6875 45.8919 29.0041 50.2085 34.31 50.2085C35.9279 50.2085 37.2396 51.5202 37.2396 53.1382C37.2396 54.7561 35.9279 56.0679 34.31 56.0679Z" fill="#FFCB00"/>
<path d="M65.6901 56.0679C64.0721 56.0679 62.7604 54.7561 62.7604 53.1382C62.7604 51.5202 64.0721 50.2085 65.6901 50.2085C70.9959 50.2085 75.3125 45.8919 75.3125 40.586V37.2397H65.6901C64.0721 37.2397 62.7604 35.928 62.7604 34.3101C62.7604 32.6921 64.0721 31.3804 65.6901 31.3804H78.2422C79.8602 31.3804 81.1719 32.6921 81.1719 34.3101V40.586C81.1719 49.1228 74.2268 56.0679 65.6901 56.0679Z" fill="#FFB454"/>
<path d="M82.387 13.4699L77.7915 18.0656C76.6473 19.2098 76.6473 21.0646 77.7915 22.2088C78.9354 23.3527 80.7905 23.3529 81.9346 22.2088L86.5301 17.6131C87.6743 16.4689 87.6743 14.6141 86.5301 13.4699C85.3862 12.3258 83.5311 12.3258 82.387 13.4699Z" fill="#FFCB00"/>
<path d="M18.0654 77.7912L13.4699 82.3869C12.3258 83.5311 12.3258 85.3859 13.4699 86.5301C14.6139 87.674 16.4689 87.6742 17.6131 86.5301L22.2086 81.9344C23.3527 80.7902 23.3527 78.9352 22.2086 77.7912C21.0646 76.6471 19.2096 76.6471 18.0654 77.7912Z" fill="#FFE705"/>
<path d="M17.6131 13.4699C16.4691 12.3258 14.6141 12.3258 13.4699 13.4699C12.3258 14.6141 12.3258 16.4689 13.4699 17.6131L18.0654 22.2088C19.2094 23.3529 21.0645 23.3529 22.2086 22.2088C23.3527 21.0647 23.3527 19.2096 22.2086 18.0656L17.6131 13.4699Z" fill="#FFE705"/>
<path d="M81.9346 77.7912C80.7907 76.6471 78.9356 76.6471 77.7915 77.7912C76.6473 78.9354 76.6473 80.7902 77.7915 81.9344L82.387 86.5301C83.5309 87.6742 85.386 87.6742 86.5301 86.5301C87.6743 85.3859 87.6743 83.5311 86.5301 82.3869L81.9346 77.7912Z" fill="#FFCB00"/>
<path d="M63.3709 0.100553C61.8082 -0.318197 60.2015 0.609147 59.7828 2.17223L58.1007 8.44997C57.6818 10.0129 58.6093 11.6193 60.1724 12.0381C61.7351 12.4568 63.3418 11.5293 63.7605 9.96637L65.4425 3.68864C65.8613 2.12575 64.9337 0.519303 63.3709 0.100553Z" fill="#FFCB00"/>
<path d="M39.8275 87.9619C38.2648 87.5431 36.6582 88.4707 36.2394 90.0335L34.5574 96.3113C34.1385 97.8742 35.066 99.4806 36.6291 99.8994C38.1918 100.318 39.7984 99.3906 40.2172 97.8277L41.8992 91.55C42.318 89.9871 41.3906 88.3806 39.8275 87.9619Z" fill="#FFE705"/>
<path d="M9.96632 36.2399L3.68858 34.5576C2.12569 34.1387 0.519248 35.0664 0.100498 36.6291C-0.318448 38.192 0.609091 39.7985 2.17218 40.2172L8.44991 41.8994C10.0128 42.3184 11.6192 41.3906 12.038 39.828C12.4567 38.2651 11.5292 36.6584 9.96632 36.2399Z" fill="#FFE705"/>
<path d="M97.8278 59.7828L91.55 58.1006C89.9871 57.6817 88.3807 58.6094 87.9619 60.1721C87.543 61.735 88.4705 63.3414 90.0336 63.7602L96.3114 65.4424C97.8743 65.8613 99.4807 64.9336 99.8994 63.3709C100.318 61.808 99.3909 60.2016 97.8278 59.7828Z" fill="#FFCB00"/>
<path d="M40.2172 2.17222C39.7987 0.609329 38.192 -0.31821 36.6291 0.10054C35.0662 0.51929 34.1387 2.12574 34.5574 3.68863L36.2395 9.96636C36.658 11.5293 38.2647 12.4568 39.8276 12.038C41.3905 11.6193 42.318 10.0128 41.8992 8.44995L40.2172 2.17222Z" fill="#FFE705"/>
<path d="M63.7603 90.0335C63.3418 88.4707 61.7351 87.5431 60.1722 87.9619C58.6093 88.3806 57.6818 89.9871 58.1005 91.55L59.7826 97.8277C60.2011 99.3906 61.8078 100.318 63.3707 99.8994C64.9335 99.4806 65.8611 97.8742 65.4423 96.3113L63.7603 90.0335Z" fill="#FFCB00"/>
<path d="M91.55 41.8994L97.8277 40.2172C99.3906 39.7985 100.318 38.192 99.8994 36.6291C99.4806 35.0664 97.8742 34.1387 96.3113 34.5576L90.0335 36.2399C88.4707 36.6586 87.5431 38.2651 87.9619 39.828C88.3806 41.3906 89.9871 42.3184 91.55 41.8994Z" fill="#FFCB00"/>
<path d="M8.44991 58.1006L2.17218 59.7828C0.609091 60.2016 -0.318448 61.808 0.100498 63.3709C0.519248 64.9336 2.12569 65.8613 3.68858 65.4424L9.96632 63.7602C11.5292 63.3414 12.4567 61.735 12.038 60.1721C11.6192 58.6094 10.0128 57.6817 8.44991 58.1006Z" fill="#FFE705"/>
<path d="M50 65.4817C39.7332 65.4817 31.3802 57.1288 31.3802 46.8618V28.0337C31.3802 26.4157 32.692 25.104 34.3099 25.104H65.69C67.308 25.104 68.6197 26.4157 68.6197 28.0337V46.8618C68.6197 57.1288 60.2668 65.4817 50 65.4817Z" fill="#FFE705"/>
<path d="M59.4141 81.1719H40.5859C38.968 81.1719 37.6562 79.8602 37.6562 78.2422C37.6562 76.6242 38.968 75.3125 40.5859 75.3125H59.4141C61.032 75.3125 62.3438 76.6242 62.3438 78.2422C62.3438 79.8602 61.032 81.1719 59.4141 81.1719Z" fill="#FFE705"/>
<path d="M68.6197 46.8618V28.0337C68.6197 26.4157 67.308 25.104 65.69 25.104H50V65.4815C60.2668 65.4817 68.6197 57.1288 68.6197 46.8618Z" fill="#FFCB00"/>
<path d="M62.3438 78.2422C62.3438 76.6242 61.032 75.3125 59.4141 75.3125H50V81.1719H59.4141C61.032 81.1719 62.3438 79.8602 62.3438 78.2422Z" fill="#FFCB00"/>
</g>
<defs>
<clipPath id="clip0_118_504">
<rect width="100" height="100" fill="white"/>
</clipPath>
</defs>
</svg>
