<svg width="100" height="100" viewBox="0 0 100 100" fill="none" xmlns="http://www.w3.org/2000/svg">
<g clip-path="url(#clip0_46_515)">
<path d="M20.4619 36.3249C19.8508 36.3249 19.2525 36.0166 18.9077 35.4565C17.7877 33.6415 15.6953 31.5418 13.2929 31.6185C12.2713 31.5637 11.4432 30.856 11.414 29.8508C11.383 28.8421 12.1747 28.0011 13.1816 27.9701C17.0252 27.8552 20.3032 30.7684 22.0125 33.543C22.5415 34.4003 22.2752 35.524 21.4178 36.0531C21.1205 36.2373 20.7885 36.3249 20.4619 36.3249Z" fill="#436B1C"/>
<path d="M57.7973 12.0341C57.5529 8.48055 54.5995 5.6713 50.984 5.6713C50.9731 5.6713 50.9639 5.67312 50.953 5.67312C51.0168 5.13499 50.9804 4.56584 50.8071 3.97298C50.3182 2.30568 48.8515 1.0251 47.1259 0.818968C45.7103 0.651143 44.4115 1.15827 43.5012 2.05759C42.6347 1.27501 41.5001 0.786133 40.2414 0.786133C37.5434 0.786133 35.358 2.97333 35.358 5.66948C35.358 5.6786 35.3599 5.68589 35.3599 5.69501C32.0818 5.9431 29.4969 8.67756 29.4969 12.0195C29.4969 12.5302 29.5644 13.0246 29.6775 13.5007C25.7756 13.6631 22.6599 16.87 22.6599 20.812C22.6599 22.1473 23.0229 23.3951 23.6468 24.4732C22.4483 25.4582 21.6821 26.9522 21.6821 28.625C21.6821 30.1537 22.3297 31.5237 23.3549 32.4996C27.7548 28.9041 32.3773 40.9291 37.8207 50.5298C39.6285 53.7185 59.16 50.3219 60.716 52.3029C62.4891 50.7086 63.6347 22.9445 63.684 20.5056C63.7606 16.5927 61.2761 13.2544 57.7973 12.0341Z" fill="#88C057"/>
<path d="M60.2947 48.401L61.5953 47.622C64.0033 46.1773 67.0095 46.1773 69.4156 47.622L70.7163 48.401C73.1242 49.8457 76.1304 49.8457 78.5366 48.401L82.2123 46.7665C82.7522 45.2597 83.128 44.1688 83.2776 43.6854C86.7071 32.6546 88.9162 21.04 89.2172 9.45461C89.3375 4.79564 85.4849 -2.47009 79.0838 0.831687C72.7922 4.07509 68.2865 16.5142 65.1197 22.4209C60.6212 30.814 57.0641 39.9422 54.5303 49.2437C56.4603 49.7308 58.5362 49.4553 60.2947 48.401Z" fill="#EEAF4B"/>
<path d="M12.8693 46.5275L15.3229 47.9996C18.1412 49.6906 21.6619 49.6906 24.4803 47.9996L25.1114 47.6201C27.5194 46.1754 30.5256 46.1754 32.9317 47.6201L34.2324 48.3991C35.6461 49.2473 37.266 49.583 38.8494 49.4352C40.0169 45.6646 39.6247 40.9509 37.8151 37.7604C31.7296 27.0251 26.6675 29.2123 21.7969 33.8731C20.8629 34.7669 19.721 35.4218 18.4769 35.7775C13.1357 37.3044 9.19361 39.8017 11.4355 46.6023C11.8314 46.314 12.3823 46.2356 12.8693 46.5275Z" fill="#ED3F32"/>
<path d="M64.926 44.4298C64.7326 44.4298 64.5338 44.3988 64.3404 44.3331C63.3863 44.0084 62.8756 42.9723 63.2003 42.0182C64.417 38.4392 68.3244 36.5238 71.898 37.7278C73.5744 38.2987 75.4004 37.3976 75.9696 35.7212C76.2925 34.7671 77.3249 34.2527 78.2845 34.5792C79.2385 34.9039 79.7493 35.9401 79.4246 36.8941C78.2097 40.475 74.3059 42.3977 70.7269 41.1846C69.0523 40.6154 67.2263 41.5184 66.6553 43.1912C66.3944 43.9537 65.6848 44.4298 64.926 44.4298Z" fill="#A46F3E"/>
<path d="M69.2404 31.7204C69.047 31.7204 68.8482 31.6894 68.6548 31.6237C67.7008 31.299 67.19 30.2629 67.5147 29.3088C68.1039 27.574 69.3334 26.1712 70.9752 25.3613C72.617 24.5513 74.4758 24.4291 76.2124 25.0183C77.8925 25.5911 79.7149 24.6882 80.284 23.0099C80.6069 22.054 81.643 21.5414 82.5971 21.868C83.5511 22.1927 84.0619 23.2288 83.7372 24.1829C82.5223 27.7656 78.6185 29.6846 75.0395 28.4752C74.2277 28.1979 73.3558 28.2544 72.5878 28.6339C71.8198 29.0133 71.2452 29.6682 70.9679 30.4818C70.7107 31.2424 70.0011 31.7204 69.2404 31.7204Z" fill="#A46F3E"/>
<path d="M73.5562 19.0098C73.3628 19.0098 73.164 18.9788 72.9688 18.9132C72.0148 18.5885 71.504 17.5523 71.8287 16.5983C72.894 13.457 76.3217 11.7715 79.4629 12.8332C80.0649 13.0375 80.707 12.9973 81.2743 12.7182C81.8417 12.4391 82.2667 11.9539 82.471 11.3537C82.7939 10.3997 83.8282 9.8871 84.7859 10.2118C85.7399 10.5365 86.2507 11.5726 85.926 12.5267C85.4079 14.0499 84.3298 15.2812 82.8887 15.9908C81.4458 16.7023 79.8132 16.8062 78.29 16.29C77.0532 15.8686 75.7033 16.5344 75.2837 17.773C75.0247 18.5319 74.3151 19.0098 73.5562 19.0098Z" fill="#A46F3E"/>
<path d="M42.6312 25.7117C40.9074 28.0047 38.1875 30.7191 39.2346 35.513L42.0511 48.4009L43.3536 47.622C45.7615 46.1772 48.7678 46.1772 51.1739 47.622L52.4745 48.4009C53.5326 49.0357 54.5304 49.2455 54.5304 49.2455C56.4312 42.2716 58.9066 35.3944 61.922 28.8529C60.5101 25.3213 57.4947 24.1392 55.3057 22.9298C55.2929 22.9225 55.2801 22.9152 55.2692 22.9097C53.8846 22.1162 53.7989 20.2209 54.8405 19.0133C55.2509 18.5372 55.4407 17.8823 55.2984 17.2256L55.0777 16.2186C54.835 15.1095 53.7296 14.4017 52.6223 14.6443L41.5367 17.0632C40.4276 17.3058 39.7198 18.4113 39.9625 19.5186L40.1832 20.5255C40.3291 21.1968 40.7925 21.7167 41.3798 21.9703C42.7279 22.5522 43.5506 24.0571 42.8611 25.3541C42.7954 25.4764 42.7188 25.5949 42.6312 25.7117Z" fill="#DAE7EF"/>
<path d="M54.2619 19.8817L41.7134 22.6235C40.3288 22.9263 38.9461 22.0397 38.6433 20.6552L38.4627 19.8307C38.1598 18.4461 39.0464 17.0634 40.431 16.7606L52.9795 14.0188C54.3641 13.716 55.7468 14.6025 56.0496 15.9871L56.2302 16.8116C56.533 18.198 55.6465 19.5789 54.2619 19.8817Z" fill="white"/>
<path d="M85.4008 46.21L82.2176 91.8675C81.9841 96.4262 78.2208 100.002 73.6567 100.002H22.45C17.8859 100.002 14.1226 96.4262 13.8891 91.8675L10.7826 47.7077C10.7297 46.6697 11.8552 45.9929 12.7472 46.5274L15.2007 47.9995C18.0191 49.6906 21.5398 49.6906 24.3581 47.9995L24.9893 47.6201C27.3972 46.1754 30.4035 46.1754 32.8096 47.6201L34.1102 48.4009C36.5182 49.8456 39.5244 49.8456 41.9305 48.4009L43.2312 47.6201C45.6391 46.1754 48.6453 46.1754 51.0514 47.6201L52.3521 48.4009C54.76 49.8456 57.7663 49.8456 60.1724 48.4009L61.473 47.6201C63.8809 46.1754 66.8872 46.1754 69.2933 47.6201L70.5939 48.4009C73.0019 49.8456 76.0081 49.8456 78.4142 48.4009L84.5927 45.6555C84.9849 45.4803 85.4227 45.7813 85.4008 46.21Z" fill="#FBD490"/>
<path d="M32.6711 76.6157H19.9018C18.8949 76.6157 18.0776 75.8002 18.0776 74.7915C18.0776 73.7827 18.8949 72.9673 19.9018 72.9673H32.6711C33.6781 72.9673 34.4953 73.7827 34.4953 74.7915C34.4953 75.8002 33.6781 76.6157 32.6711 76.6157Z" fill="#E0B877"/>
<path d="M36.3195 83.9123H19.9018C18.8949 83.9123 18.0776 83.0969 18.0776 82.0881C18.0776 81.0793 18.8949 80.2639 19.9018 80.2639H36.3195C37.3264 80.2639 38.1437 81.0793 38.1437 82.0881C38.1437 83.0969 37.3264 83.9123 36.3195 83.9123Z" fill="#E0B877"/>
<path d="M39.9679 91.2092H19.9018C18.8949 91.2092 18.0776 90.3938 18.0776 89.385C18.0776 88.3762 18.8949 87.5608 19.9018 87.5608H39.9679C40.9748 87.5608 41.792 88.3762 41.792 89.385C41.792 90.3938 40.9748 91.2092 39.9679 91.2092Z" fill="#E0B877"/>
<path d="M50.913 91.2092H47.2646C46.2577 91.2092 45.4404 90.3938 45.4404 89.385C45.4404 88.3762 46.2577 87.5608 47.2646 87.5608H50.913C51.9199 87.5608 52.7372 88.3762 52.7372 89.385C52.7372 90.3938 51.9199 91.2092 50.913 91.2092Z" fill="#E0B877"/>
</g>
<defs>
<clipPath id="clip0_46_515">
<rect width="100" height="100" fill="white"/>
</clipPath>
</defs>
</svg>
