<svg width="100" height="100" viewBox="0 0 100 100" fill="none" xmlns="http://www.w3.org/2000/svg">
<g clip-path="url(#clip0_46_501)">
<path d="M86.2531 29.9856C85.4188 26.4677 81.8915 24.2916 78.3736 25.1227L38.5099 34.5661C34.9921 35.4003 32.816 38.9277 33.6503 42.4455L41.5932 75.9745C42.4275 79.4924 45.9548 81.6684 49.4727 80.8342L89.3364 71.3909C92.8542 70.5566 95.0303 67.0292 94.1992 63.5114L86.2531 29.9856Z" fill="#FDBC4B"/>
<path d="M43.9408 47.2069C42.0058 47.6668 40.8099 49.605 41.2667 51.54L43.6997 61.8144C44.1565 63.7494 46.0978 64.9452 48.0328 64.4885C49.9677 64.0285 51.1636 62.0904 50.7068 60.1554L48.2738 49.881C47.8139 47.946 45.8757 46.7469 43.9408 47.2069Z" fill="#FFCC5B"/>
<path d="M41.828 38.2996C39.893 38.7596 38.6971 40.6977 39.1539 42.6327L39.1983 42.823C39.6551 44.758 41.5932 45.9539 43.5314 45.4971C45.4664 45.0372 46.6622 43.099 46.2054 41.164L46.161 40.9737C45.7043 39.0387 43.7661 37.8429 41.828 38.2996Z" fill="#FFCC5B"/>
<path d="M67.8106 40.2693L60.3943 38.0901L54.7448 43.3653L51.9058 31.3938L64.9748 28.2979L67.8106 40.2693Z" fill="#EC9922"/>
<path d="M87.8644 60.3236L83.0587 57.3577L80.0928 62.1634L82.6685 61.5543L83.9944 67.1499L86.6146 66.5314L85.2887 60.9326L87.8644 60.3236Z" fill="#464646"/>
<path d="M78.6654 62.5028L73.8597 59.5369L70.897 64.3426L73.4727 63.7335L74.7986 69.3291L77.4188 68.7074L76.0929 63.1118L78.6654 62.5028Z" fill="#464646"/>
<path d="M40.7207 89.3766C39.2393 89.3766 37.8944 88.3647 37.5391 86.858L19.7976 11.9395C19.3693 10.1187 18.2528 8.5771 16.6604 7.59375C15.0712 6.61358 13.1965 6.31223 11.3725 6.73729L4.21626 8.43436C2.44941 8.85624 0.692069 7.76187 0.273353 6.00453C-0.142191 4.24402 0.949008 2.48034 2.70635 2.0648L9.86576 0.370898C13.3931 -0.466534 17.022 0.126647 20.1021 2.02356C23.179 3.92681 25.3361 6.91175 26.1703 10.4328L43.1569 82.1665L95.785 69.7033C97.5456 69.2846 99.3092 70.3758 99.7248 72.1331C100.144 73.8905 99.0523 75.6573 97.2918 76.0729L41.4788 89.2878C41.2251 89.3481 40.9713 89.3766 40.7207 89.3766Z" fill="#E5E5E5"/>
<path d="M40.7368 99.9999C48.4118 99.9999 54.6337 93.7781 54.6337 86.103C54.6337 78.4279 48.4118 72.2061 40.7368 72.2061C33.0617 72.2061 26.8398 78.4279 26.8398 86.103C26.8398 93.7781 33.0617 99.9999 40.7368 99.9999Z" fill="#464646"/>
<path d="M40.737 93.8621C45.0221 93.8621 48.4959 90.3883 48.4959 86.1032C48.4959 81.818 45.0221 78.3442 40.737 78.3442C36.4518 78.3442 32.978 81.818 32.978 86.1032C32.978 90.3883 36.4518 93.8621 40.737 93.8621Z" fill="#CACACA"/>
<g opacity="0.07">
<path d="M36.2608 89.7986C35.2711 85.6273 37.8532 81.4465 42.0213 80.46C43.4646 80.1174 44.9016 80.2284 46.2148 80.6598C44.375 78.8073 41.6597 77.9096 38.9349 78.5567C34.7636 79.5433 32.1847 83.7272 33.1743 87.8954C33.8215 90.6234 35.8389 92.644 38.3195 93.4592C37.3456 92.4759 36.6034 91.2419 36.2608 89.7986Z" fill="#010101"/>
</g>
</g>
<defs>
<clipPath id="clip0_46_501">
<rect width="100" height="100" fill="white"/>
</clipPath>
</defs>
</svg>
