<svg width="80" height="80" viewBox="0 0 80 80" fill="none" xmlns="http://www.w3.org/2000/svg">
<g clip-path="url(#clip0_118_564)">
<path d="M70.7613 63.9652C70.5356 62.0686 69.7361 60.2862 68.4697 58.8565C67.2033 57.4269 65.5304 56.4181 63.675 55.9652L47.5 51.4102H32.5L16.325 55.9589C14.4696 56.4118 12.7967 57.4206 11.5303 58.8503C10.2639 60.28 9.4644 62.0624 9.23875 63.9589L7.5 78.7502H72.5L70.7613 63.9652Z" fill="#DCE1EB"/>
<path d="M70.7613 63.9652C70.5356 62.0686 69.7361 60.2862 68.4697 58.8565C67.2033 57.4269 65.5304 56.4181 63.675 55.9652L47.5 51.4102H32.5L16.325 55.9589C14.4696 56.4118 12.7967 57.4206 11.5303 58.8503C10.2639 60.28 9.4644 62.0624 9.23875 63.9589L7.5 78.7502H72.5L70.7613 63.9652Z" fill="#DCE1EB"/>
<path d="M32.5 43.2886V52.1636L40 59.5036L47.5 52.1636V43.3086C44.7638 45.5486 41.7275 46.9998 40.0287 46.9998C38.33 46.9998 35.25 45.5398 32.5 43.2886Z" fill="#FAA68E"/>
<path d="M36.25 45.7736V49.8173C36.2495 50.5625 36.398 51.3002 36.6867 51.9871C36.9754 52.674 37.3986 53.2963 37.9313 53.8173L41.875 57.6736L47.5 52.1736V43.3086C44.7638 45.5486 41.7275 46.9998 40.0288 46.9998C38.6948 46.8715 37.4051 46.453 36.25 45.7736Z" fill="#FFBEAA"/>
<path d="M38.75 58.75H41.25V78.75H38.75V58.75Z" fill="#BEC3D2"/>
<path d="M47.5 51.4102L55.1288 53.5564L47.5 65.0002L40 58.7502L47.5 51.4102Z" fill="#AFB4C8"/>
<path d="M45.9025 60.5437L48.8387 62.9912L55.125 53.5562L50.4125 52.23L45.75 56.7912C45.4971 57.0389 45.299 57.3369 45.1686 57.6659C45.0381 57.995 44.9781 58.3477 44.9924 58.7014C45.0068 59.055 45.0952 59.4017 45.252 59.7191C45.4088 60.0365 45.6304 60.3174 45.9025 60.5437Z" fill="#BEC3D2"/>
<path d="M32.5 51.4102L24.8713 53.5564L32.5 65.0002L40 58.7502L32.5 51.4102Z" fill="#AFB4C8"/>
<path d="M34.0987 60.5437L31.1613 62.9912L24.875 53.5562L29.5913 52.23L34.25 56.7912C34.5028 57.0389 34.7008 57.3369 34.8313 57.6658C34.9617 57.9948 35.0218 58.3475 35.0075 58.7011C34.9933 59.0547 34.905 59.4014 34.7485 59.7188C34.592 60.0361 34.3706 60.3172 34.0987 60.5437Z" fill="#BEC3D2"/>
<path d="M39.6362 5C26.7612 5 23.3862 13.395 23.3862 23.75H26.75C26.75 23.5125 26.8137 17.9075 31.3075 17.9075C32.8026 17.9604 34.2686 18.3361 35.605 19.0087C36.9736 19.6912 38.4718 20.0747 40 20.1338C41.5282 20.0747 43.0264 19.6912 44.395 19.0087C45.7313 18.3361 47.1973 17.9604 48.6925 17.9075C53.1862 17.9075 53.25 23.5125 53.25 23.75H55.8862C55.8862 13.395 52.5087 5 39.6362 5Z" fill="#484A50"/>
<path d="M48.6925 17.4077C45.1462 17.4077 43.325 19.6352 40 19.6352C36.675 19.6352 34.8537 17.4077 31.3075 17.4077C26.25 17.4077 26.25 23.7502 26.25 23.7502V33.6965C26.25 40.969 36.3112 47.5002 40.0287 47.5002C43.7462 47.5002 53.75 40.969 53.75 33.6965V23.7502C53.75 23.7502 53.75 17.4077 48.6925 17.4077Z" fill="#FFCDBE"/>
<path d="M41.9025 47.1252C46.3362 45.6627 53.75 39.9602 53.75 33.6965V23.7502C53.75 23.7502 53.75 17.4077 48.6925 17.4077C45.1462 17.4077 43.325 19.6352 40 19.6352C37.39 19.6352 35.6963 18.2752 33.375 17.6852C30 18.9052 30 23.7502 30 23.7502V33.6965C30 39.9602 37.4562 45.6627 41.9025 47.1252Z" fill="#FFDECF"/>
<path d="M61.1675 24.7662L61.3362 23.985C61.5277 22.8744 61.6239 21.7495 61.6237 20.6225C61.625 12.9212 58.8137 0 40 0C21.1862 0 18.375 12.9212 18.375 20.625C18.3759 21.7701 18.475 22.9131 18.6713 24.0412L18.83 24.77C19.228 24.436 19.7304 24.252 20.25 24.25H21.2788L21.1287 23.5625C20.9631 22.5913 20.8794 21.6078 20.8787 20.6225C20.875 12.355 24.1937 2.5 40 2.5C55.8062 2.5 59.125 12.355 59.125 20.625C59.1251 21.5917 59.0448 22.5566 58.885 23.51L58.7237 24.2525H59.75C60.2679 24.2536 60.7692 24.4352 61.1675 24.7662Z" fill="#FDB924"/>
<path d="M54.25 33.2499V31.9536L44.7238 35.7636C45.127 35.9797 45.4411 36.331 45.611 36.7558C45.7808 37.1805 45.7955 37.6516 45.6525 38.0861L56.715 33.6611C56.9191 33.5728 57.0954 33.4306 57.225 33.2499H54.25Z" fill="#AFB4C8"/>
<path d="M59.75 33.75H53.75V23.75H59.75C60.4793 23.75 61.1788 24.0397 61.6945 24.5555C62.2103 25.0712 62.5 25.7707 62.5 26.5V31C62.5 31.7293 62.2103 32.4288 61.6945 32.9445C61.1788 33.4603 60.4793 33.75 59.75 33.75Z" fill="#FDB924"/>
<path d="M59.75 23.75H57.5V28.75C57.5 29.413 57.7634 30.0489 58.2322 30.5178C58.7011 30.9866 59.337 31.25 60 31.25H62.475L62.5 31.225V26.5C62.5 25.7707 62.2103 25.0712 61.6945 24.5555C61.1788 24.0397 60.4793 23.75 59.75 23.75Z" fill="#FFD36C"/>
<path d="M20.25 23.75H26.25V33.75H20.25C19.5207 33.75 18.8212 33.4603 18.3055 32.9445C17.7897 32.4288 17.5 31.7293 17.5 31V26.5C17.5 25.7707 17.7897 25.0712 18.3055 24.5555C18.8212 24.0397 19.5207 23.75 20.25 23.75Z" fill="#FDB924"/>
<path d="M20.25 23.75H22.5V28.75C22.5 29.413 22.2366 30.0489 21.7678 30.5178C21.2989 30.9866 20.663 31.25 20 31.25H17.525L17.5 31.225V26.5C17.5 25.7707 17.7897 25.0712 18.3055 24.5555C18.8212 24.0397 19.5207 23.75 20.25 23.75Z" fill="#FFD36C"/>
<path d="M43.75 40C45.1307 40 46.25 38.8807 46.25 37.5C46.25 36.1193 45.1307 35 43.75 35C42.3693 35 41.25 36.1193 41.25 37.5C41.25 38.8807 42.3693 40 43.75 40Z" fill="#FDB924"/>
</g>
<defs>
<clipPath id="clip0_118_564">
<rect width="80" height="80" fill="white"/>
</clipPath>
</defs>
</svg>
